<?xml version="1.0" standalone="no"?>
<!DOCTYPE svg PUBLIC "-//W3C//DTD SVG 1.1//EN" "http://www.w3.org/Graphics/SVG/1.1/DTD/svg11.dtd" >
<svg xmlns="http://www.w3.org/2000/svg">
<metadata>Generated by IcoMoon</metadata>
<defs>
<font id="jfh" horiz-adv-x="1024">
<font-face units-per-em="1024" ascent="960" descent="-64" />
<missing-glyph horiz-adv-x="1024" />
<glyph unicode="&#x20;" horiz-adv-x="512" d="" />
<glyph unicode="&#xe900;" glyph-name="alipay" d="M930.909 292.772v412.477c0 88.909-72.182 161.068-161.091 161.068h-515.66c-88.909 0.001-161.068-72.159-161.068-161.068v-515.613c0-88.909 72.113-161.091 161.068-161.091h515.66c79.183 0 145.091 57.318 158.545 132.637-42.727 18.5-227.863 98.455-324.319 144.455-73.409-88.864-150.273-142.227-266.159-142.227-115.863 0-193.204 71.364-183.932 158.682 6.113 57.364 45.455 151.091 216.25 135.023 90-8.432 131.204-25.249 204.614-49.478 19.046 34.819 34.772 73.136 46.772 113.932h-325.523v32.249h161.046v57.91h-196.455v35.5h196.455v83.591c0 0 1.795 13.068 16.25 13.068h80.545v-96.659h209.455v-35.5h-209.455v-57.91h170.864c-15.728-63.932-39.546-122.682-69.409-174 49.636-17.955 275.545-87.046 275.545-87.046v0 0zM325.068 218.682c-122.432 0-141.795 77.318-135.296 109.591 6.432 32.182 41.887 74.092 109.955 74.092 78.227 0 148.273-20 232.387-60.954-59.068-76.911-131.636-122.729-207.046-122.729v0z" />
<glyph unicode="&#xe901;" glyph-name="angle-down" d="M513.815 339.735l-352.070 352.070-68.655-68.655 418.909-418.956 418.909 418.956-66.839 66.746-350.255-350.161z" />
<glyph unicode="&#xe902;" glyph-name="angle-right" d="M620.358 449.815l-352.116-352.023 68.655-68.748 418.909 419.002-418.909 418.909-66.746-66.839 350.208-350.301z" />
<glyph unicode="&#xe903;" glyph-name="armoire" d="M945.711 351.93c-0.186-3.537-1.071-6.796-2.095-10.38-0.559-1.815-0.931-3.631-1.629-5.353-0.559-1.071-0.559-2.374-1.164-3.537-1.629-2.979-4.189-5.167-6.47-7.587-0.093-0.186-0.279-0.279-0.372-0.465-9.635-10.193-22.993-14.615-36.166-11.916h-142.383c0.186-2.374 0.745-4.655 0.745-7.168v-236.637c0-63.814-48.64-54.179-108.544-54.179h-216.995c-59.951 0-108.544-9.635-108.544 54.179v236.637c0 2.56 0.559 4.841 0.698 7.261h-27.788v-298.077c-32.256 18.804-54.272 14.196-54.272 54.179v216.809c0 9.449 1.443 18.432 3.724 27.089h-118.225c-13.219-2.839-26.577 1.629-36.166 11.823-0.14 0.186-0.233 0.372-0.419 0.465-2.234 2.513-4.748 4.608-6.47 7.68-0.605 1.164-0.605 2.467-1.071 3.537-0.838 1.722-1.117 3.537-1.722 5.353-0.977 3.444-1.862 6.796-2.095 10.287-0.047 0.559-0.279 0.931-0.279 1.443 0 1.071 0.559 1.908 0.559 2.979 0.791 13.824 7.215 27.089 19.456 34.537l358.819 227.793v47.29h49.757v-1.257c31.185 9.728 54.086 39.936 54.086 75.729 0 43.613-33.978 78.988-75.869 78.988-36.585 0-67.072-26.95-74.24-62.836h0.698v-11.869c0-17.268-13.964-31.279-31.092-31.279s-31.092 14.010-31.092 31.279v11.916h0.977c7.68 70.47 65.024 125.161 134.749 125.161 74.985 0 135.633-63.302 135.633-141.359 0-49.059-24.25-91.788-60.556-117.155l365.987-232.401c12.288-7.354 18.711-20.713 19.549-34.537 0.093-1.071 0.559-1.908 0.559-2.979 0-0.512-0.279-0.884-0.279-1.443v0zM512 554.124l-252.23-160.116h101.841c18.804 16.71 42.682 27.136 69.073 27.136h216.948c26.438 0 50.269-10.426 69.073-27.136h47.616l-252.323 160.116z" />
<glyph unicode="&#xe904;" glyph-name="arrow" d="M146.292 890.089l-76.474-64 393.216-394.473-391.773-358.912 71.447-66.746 462.569 423.052-458.985 461.079zM811.892 431.523l-391.68-359.005 71.308-66.746 462.615 423.145-458.799 461.265-76.567-64.093 393.123-394.566z" />
<glyph unicode="&#xe905;" glyph-name="calendar" d="M704.512 187.439h33.932c19.596 0 35.375 11.636 35.375 26.112s-15.919 26.112-35.375 26.112h-33.932c-19.456 0-35.514-11.636-35.514-26.112s16.058-26.112 35.514-26.112v0zM704.512 344.436h33.932c19.596 0 35.375 11.823 35.375 26.205 0 14.476-15.919 26.205-35.375 26.205h-33.932c-19.456 0-35.514-11.729-35.514-26.205 0-14.383 16.058-26.205 35.514-26.205v0zM495.057 344.436h33.839c19.549 0 35.514 11.823 35.514 26.205 0 14.476-15.965 26.205-35.514 26.205h-33.839c-19.596 0-35.468-11.729-35.468-26.205 0-14.383 15.872-26.205 35.468-26.205v0zM285.649 344.436h33.839c19.549 0 35.421 11.823 35.421 26.205 0 14.476-15.872 26.205-35.421 26.205h-33.839c-19.596 0-35.514-11.729-35.514-26.205 0-14.383 15.919-26.205 35.514-26.205v0zM495.057 187.439h33.839c19.549 0 35.514 11.636 35.514 26.112s-15.965 26.112-35.514 26.112h-33.839c-19.596 0-35.468-11.636-35.468-26.112s15.872-26.112 35.468-26.112v0zM285.649 187.439h33.839c19.549 0 35.421 11.636 35.421 26.112s-15.872 26.112-35.421 26.112h-33.839c-19.596 0-35.514-11.636-35.514-26.112s15.919-26.112 35.514-26.112v0zM776.751 763.345h-53.015v74.519c0.279 0.745 0.279 1.396 0.279 2.141 0 14.15-11.59 25.693-25.647 25.693-14.196 0-25.647-11.264-25.786-25.321h-0.14v-77.033h-318.417v74.519c0.047 0.745 0.14 1.396 0.14 2.141 0 14.15-11.543 25.693-25.693 25.693-14.057 0-25.414-11.264-25.693-25.321v0-77.033h-55.482c-85.085 0-154.205-59.625-154.205-172.218v-404.945c0-81.082 61.44-147.642 139.636-155.276l544.023-0.652c85.039 0 154.205 69.911 154.205 155.927v421.283c-0.047 85.969-69.167 155.881-154.205 155.881v0zM878.499 170.915c0-48.733-42.124-88.25-94.115-88.25h-544.861c-51.898 0-94.068 39.564-94.068 88.25v330.705h733.044v-330.705zM878.499 622.871v-68.934h-733.044v68.934c0 43.194 37.935 88.204 104.681 88.204h52.643v-78.615h0.047c0.512-13.777 11.776-24.809 25.647-24.809 14.196 0 25.693 11.543 25.693 25.693 0 0.745-0.047 1.489-0.14 2.141v75.543h318.417v-78.615h0.14c0.372-13.731 11.729-24.762 25.786-24.762s25.647 11.543 25.647 25.693c0 0.745 0 1.489-0.279 2.141v75.543h50.036c51.991 0 109.335-38.307 104.727-88.157v0z" />
<glyph unicode="&#xe906;" glyph-name="camera" d="M904.751 661.83c-1.071 5.213-1.955 10.519-1.955 15.453 0 0-96.954 2.467-159.791 26.577-35.933 13.684-64.047 43.66-64.047 43.66 0 22.528-18.804 40.82-41.891 40.82h-251.392c-23.087 0-41.891-18.339-41.891-40.82 0 0-26.391-29.463-60.463-42.729-61.859-24.157-164.631-27.462-164.631-27.462 0-5.399-1.164-11.217-2.653-16.896-13.591-6.796-22.947-20.573-22.947-36.445v-475.415c0-22.528 18.758-40.913 41.891-40.913h754.036c23.133 0 41.891 18.385 41.891 40.913v475.415c0 17.129-10.845 31.791-26.159 37.841v0zM511.348 211.177c-115.665 0-209.455 91.462-209.455 204.195 0 112.826 93.789 204.288 209.455 204.288 115.712 0 209.501-91.415 209.501-204.288 0-112.733-93.743-204.195-209.501-204.195v0zM511.348 537.926c-69.446 0-125.719-54.831-125.719-122.554 0-67.584 56.227-122.461 125.719-122.461s125.673 54.924 125.673 122.461c0.047 67.724-56.18 122.554-125.673 122.554v0z" />
<glyph unicode="&#xe907;" glyph-name="chaperonage" d="M383.488 383.767c33.978-37.655 77.498-61.021 123.532-61.021s89.507 23.366 123.532 61.021c118.086 4.841 160.349 72.657 160.349 159.232 0 96.675-49.943 182.039-125.626 232.401l15.313 52.596c1.303 4.561-0.233 9.449-3.956 12.335-43.101 33.42-104.913 52.596-169.658 52.596-64.698 0-126.511-19.177-169.612-52.596-3.724-2.886-5.306-7.773-3.956-12.335l15.313-52.643c-75.636-50.409-125.673-135.68-125.673-232.355 0-86.621 42.31-154.438 160.442-159.232v0zM467.689 800.628h27.881v28.113c0 6.377 5.073 11.45 11.357 11.45s11.357-5.073 11.357-11.45v-28.113h27.927c6.284 0 11.357-5.12 11.357-11.497s-5.073-11.45-11.357-11.45h-27.927v-28.207c0-6.33-5.073-11.45-11.357-11.45s-11.357 5.12-11.357 11.45v28.207h-27.881c-6.284 0-11.357 5.073-11.357 11.45s5.073 11.497 11.357 11.497v0zM336.896 549.143c70.051 7.82 132.236 39.843 170.077 88.204 37.841-48.361 100.119-80.431 170.217-88.25 0-1.117 0.047-2.327 0.047-3.491 0-120.134-79.5-199.866-170.217-199.866-90.624 0-170.17 79.732-170.17 199.866-0.047 1.21 0.047 2.374 0.047 3.537v0zM821.853 93.463c0 143.546-138.705 216.623-309.853 216.623s-309.807-73.076-309.807-216.623c0-3.91-0.233-18.804 0-22.621v-22.621c0-24.902 18.525-45.103 41.332-45.103h537.041c22.807 0 41.332 20.201 41.332 45.103v22.621c0.186 3.817-0.047 18.711-0.047 22.621v0z" />
<glyph unicode="&#xe908;" glyph-name="check-circle" d="M511.86 890.182c-244.038 0-442.042-197.958-442.042-442.182s198.004-442.182 442.042-442.182c244.364 0 442.321 197.958 442.321 442.182s-197.958 442.182-442.321 442.182v0zM444.835 217.553l-209.361 209.408 69.399 69.539 139.962-140.009 305.804 305.897 69.446-69.399-375.249-375.436z" />
<glyph unicode="&#xe909;" glyph-name="check-circle-o" d="M511.953 890.089c-244.177 0-442.182-197.865-442.182-442.089 0-244.177 198.004-442.089 442.182-442.089s442.275 197.911 442.275 442.089c0 244.224-198.097 442.089-442.275 442.089v0zM511.953 52.41c-218.484 0-395.59 177.012-395.59 395.59 0 218.484 177.059 395.543 395.59 395.543 218.577 0 395.59-177.059 395.59-395.543 0-218.577-177.012-395.59-395.59-395.59v0zM458.007 373.248l-119.389 119.296-42.636-42.682 160.768-160.815 1.21 1.303 1.21-1.303 271.919 271.965-42.682 42.589-230.4-230.353z" />
<glyph unicode="&#xe90a;" glyph-name="clock-o" d="M512.047 866.956c-231.424 0-418.909-187.532-418.909-418.909 0-231.424 187.485-419.002 418.909-419.002 231.377 0 418.816 187.578 418.816 419.002 0 231.377-187.439 418.909-418.816 418.909v0zM512.047 81.594c-202.519 0-366.592 164.026-366.592 366.452 0 202.473 164.073 366.499 366.592 366.499s366.545-164.026 366.545-366.499c0-202.426-164.026-366.452-366.545-366.452v0zM734.86 448.047h-196.655v235.939c0 14.336-11.776 25.833-26.205 25.833-14.522 0-26.205-11.497-26.205-25.833v-262.004c0-0.093 0-0.093 0-0.186v-0.326c0-6.33 2.467-12.055 6.284-16.524 4.748-5.632 11.683-9.309 19.642-9.309h223.279c14.243 0 25.74 11.776 25.74 26.205 0 14.476-11.497 26.205-25.879 26.205v0z" />
<glyph unicode="&#xe90b;" glyph-name="edit" d="M807.098 29.091h-580.422c-30.022 0-61.254 13.359-85.039 36.724-23.599 23.738-37.655 54.179-37.655 84.294v603.136c0 30.999 14.615 59.671 40.308 79.732 22.575 17.687 52.131 27.881 82.385 27.881h315.020c15.779 0 28.672-12.94 28.672-28.765s-12.893-28.672-28.672-28.672h-315.020c-30.999 0-65.21-19.642-65.21-50.176v-603.136c0-31.372 33.885-63.535 65.21-63.535h580.422c30.255 0 48.175 32.442 48.175 63.535v311.156c0 15.825 13.033 28.625 28.765 28.625 15.686 0 28.719-12.8 28.719-28.625v-311.156c0-30.255-9.356-58.833-27.089-81.548-20.015-25.833-47.802-39.471-78.569-39.471v0zM501.248 411.927c-9.356 0-18.618 3.491-25.647 10.612-14.196 14.15-14.196 37.050 0 51.153l382.697 382.65c14.057 14.15 37.143 14.15 51.2 0s14.057-37.050 0-51.2l-382.604-382.604c-7.168-7.121-16.337-10.612-25.647-10.612v0z" />
<glyph unicode="&#xe90c;" glyph-name="gear" d="M930.909 395.683v104.681h-109.103c-8.006 47.756-26.764 91.834-53.667 129.722l77.079 77.219-74.054 73.961-77.172-77.219c-37.841 26.996-81.873 45.754-129.676 53.713v109.149h-104.681v-109.103c-47.756-8.006-91.834-26.764-129.676-53.76l-77.126 77.172-74.054-73.961 77.126-77.219c-26.903-37.841-45.708-81.92-53.667-129.722h-109.149v-104.681h109.103c7.959-47.802 26.764-91.881 53.667-129.769l-77.126-77.033 74.054-74.1 77.126 77.172c37.841-26.996 81.92-45.661 129.722-53.713v-109.103h104.681v109.149c47.802 8.052 91.881 26.717 129.676 53.713l77.172-77.172 74.054 74.1-77.079 77.033c26.903 37.888 45.661 81.967 53.667 129.769h109.103zM512 238.592c-115.665 0-209.455 93.696-209.455 209.408 0 115.665 93.789 209.455 209.455 209.455 115.619 0 209.501-93.789 209.501-209.455 0-115.712-93.882-209.408-209.501-209.408v0zM512 500.364c-28.951 0-52.364-23.366-52.364-52.364s23.366-52.317 52.364-52.317 52.317 23.366 52.317 52.317-23.366 52.364-52.317 52.364v0z" />
<glyph unicode="&#xe90d;" glyph-name="heart-circle-o" d="M614.353 636.509c-43.194 0-79.639-36.399-102.353-73.728-22.621 37.329-59.252 73.728-102.493 73.728-70.656 0-127.953-64.884-127.953-144.477 0-37.609 24.902-90.857 55.668-119.482 44.73-58.554 162.863-154.903 175.057-154.903 12.94 0 128.884 95.558 173.987 154.717 31.092 28.719 55.994 82.060 55.994 119.668 0.093 79.593-57.251 144.477-127.907 144.477v0zM669.556 390.097l-1.629-1.722c-42.915-56.832-129.955-124.742-155.322-143.267-24.483 17.827-112.5 85.085-156.765 143.453-0.419 0.465-0.791 1.071-1.35 1.536-26.298 23.878-48.5 70.563-48.5 101.841 0 66.001 46.545 119.855 103.796 119.855 37.236 0 72.751-40.262 91.276-80.244 3.91-8.518 17.967-8.518 21.923 0 18.525 39.983 54.272 80.244 91.229 80.244 57.251 0 103.889-53.853 103.889-119.855 0.186-31.372-22.295-77.964-48.547-101.841v0zM512 866.909c-231.098 0-418.909-187.857-418.909-418.909s187.857-418.909 418.909-418.909c230.819 0 418.909 187.904 418.909 418.909s-188.090 418.909-418.909 418.909v0zM512 60.183c-213.923 0-387.817 173.894-387.817 387.863 0 213.737 173.894 387.724 387.817 387.724 213.83 0 387.724-173.894 387.724-387.724 0-213.969-173.894-387.863-387.724-387.863v0z" />
<glyph unicode="&#xe90e;" glyph-name="home" d="M257.908-4.096c-32.721 0-70.935 19.642-70.935 75.078v311.715h-64.698c-11.823 0-25.088 7.913-35.607 20.899-10.985 13.638-17.082 31.372-17.082 49.757v8.285l416.628 431.151c4.794 4.841 11.729 7.354 20.48 7.354 9.821 0 17.315-2.56 22.295-7.494 1.489-1.489 376.832-383.535 419.654-427.101l5.818-6.004v-8.239c0-18.851-3.119-33.373-9.728-44.265-8.611-14.429-23.18-22.435-40.913-22.435h-62.836l-0.977-316.276-0.465-2.281c-0.419-1.815-4.468-17.641-15.267-33.932-15.825-23.738-37.935-36.259-64.186-36.259h-153.972v20.294c0.14 79.546 0.233 287.837 0 296.913-0.14 4.748-4.841 16.896-10.147 16.896h-167.052c-3.677 0-11.124-7.075-11.124-16.291v-317.812h-154.996c-1.117 0.14-2.793 0.047-4.887 0.047zM124.369 423.238h103.191v-352.256c0-8.657 0-34.537 30.394-34.537h1.862l1.303 0.093h116.131v277.457c0 30.068 24.25 56.739 51.665 56.739h167.052c16.105 0 30.255-8.285 39.843-23.18 7.494-11.636 10.426-24.716 10.659-32.908 0.279-10.007 0.14-212.015 0-278.016h113.338c26.252 0 37.004 29.184 39.564 37.283l0.977 351.511h103.191c4.561 0 5.353 1.21 6.237 2.653 1.117 2.048 3.025 6.33 3.677 15.407-47.383 48.175-354.444 360.82-405.969 413.231l-396.753-410.717c2.234-13.638 10.612-20.899 13.638-22.761z" />
<glyph unicode="&#xe90f;" glyph-name="home_active" d="M937.472 509.161l-344.762 358.819c-21.364 22.249-49.99 34.583-80.71 34.583s-59.345-12.335-80.71-34.583l-344.809-358.819c-35.561-37.050-30.999-69.073-25.135-82.432 4.189-9.495 18.339-35.607 59.113-35.607h50.548v-276.061c0-62.697 45.009-121.67 109.009-121.67h146.758v292.166c0 31.325-4.748 48.826 27.229 48.826h115.991c32.023 0 27.276-17.501 27.276-48.826v-292.166h146.711c64 0 109.009 59.020 109.009 121.67v276.061h50.548c40.727 0 54.877 26.112 59.113 35.607 5.818 13.359 10.426 45.382-25.181 82.432v0z" />
<glyph unicode="&#xe910;" glyph-name="info-circle-o" d="M512.047 538.764c-15.453 0-28.020-12.521-28.020-27.927v-251.345c0-15.36 12.567-27.927 28.020-27.927 15.36 0 27.927 12.567 27.927 27.927v251.345c0 15.407-12.567 27.927-27.927 27.927v0zM512.047 866.909c-231.377 0-418.956-187.578-418.956-418.909 0-231.377 187.578-418.909 418.956-418.909 231.331 0 418.863 187.532 418.863 418.909 0 231.331-187.532 418.909-418.863 418.909v0zM512.047 84.945c-200.564 0-363.148 162.537-363.148 363.055s162.583 363.055 363.148 363.055c200.471 0 363.148-162.583 363.148-363.055 0-200.518-162.676-363.055-363.148-363.055v0zM512.047 664.436c-19.27 0-34.956-15.593-34.956-34.909 0-19.27 15.686-34.909 34.956-34.909 19.223 0 34.863 15.593 34.863 34.909s-15.639 34.909-34.863 34.909v0z" />
<glyph unicode="&#xe911;" glyph-name="jfh-bxqx" d="M748.73 70.004h-12.567c0-22.528-22.807-40.913-50.921-40.913-28.253 0-51.014 18.385-51.014 40.913h-244.503c0-22.528-22.807-40.913-50.967-40.913s-50.967 18.385-50.967 40.913h-12.567c-26.764 0-48.547 21.783-48.547 48.64v699.718c0 26.857 21.737 48.547 48.547 48.547h473.507c26.81 0 48.64-21.69 48.64-48.547v-699.718c0-26.857-21.83-48.64-48.64-48.64v0 0zM755.293 797.882c0 14.895-11.823 26.95-26.345 26.95h-434.269c-14.569 0-26.391-12.055-26.391-26.95v-267.962h487.005v267.962zM755.293 508.835h-487.052v-370.548c0-14.522 11.823-26.205 26.391-26.205h434.269c14.569 0 26.345 11.776 26.345 26.205v370.548h0.047zM389.725 294.819c-22.528 0-40.774 36.492-40.774 81.687 0 45.149 18.292 81.734 40.774 81.734s40.727-36.585 40.727-81.734c0.047-45.196-18.199-81.687-40.727-81.687v0 0zM389.725 723.875c22.528 0 40.727-32.023 40.727-71.494s-18.246-71.587-40.727-71.587c-22.528 0-40.774 32.116-40.774 71.587s18.246 71.494 40.774 71.494v0 0z" />
<glyph unicode="&#xe912;" glyph-name="check-square" d="M93.091 866.909h837.818v-837.818h-837.818v837.818zM395.636 313.018l-195.491 195.491-65.164-65.164 260.655-260.655 521.309 521.309-65.164 65.164-456.145-456.145z" />
<glyph unicode="&#xe913;" glyph-name="jfh-clby" d="M912.803 67.351h-22.481v779.357c0 9.914-8.099 18.060-18.106 18.060h-724.201c-9.961 0-18.106-8.145-18.106-18.060v-779.357h-18.711c-10.007 0-18.106-8.099-18.106-18.060s8.099-18.060 18.106-18.060h801.606c10.007 0 18.106 8.099 18.106 18.060s-8.099 18.060-18.106 18.060v0zM509.487 717.917c3.212-10.892 6.703-21.83 10.659-32.628 18.432-50.316 45.242-97.094 79.593-138.705 34.071-41.286 74.519-76.288 120.134-103.936 9.076-5.492 18.292-10.705 27.648-15.546-32.489-54.644-58.927-112.687-78.569-172.916-19.875-60.369-33.047-123.159-39.191-186.787h-240.035c-6.284 63.581-19.409 126.417-39.238 186.787-19.689 60.23-46.22 118.412-78.615 173.056 10.426 5.399 20.713 11.217 30.813 17.455 45.056 27.974 84.852 62.883 118.412 104.029 33.839 41.425 60.137 87.878 78.336 137.961 3.724 10.287 7.121 20.62 10.054 31.232v0zM666.065 67.351c6.144 59.764 18.572 118.691 37.19 175.476 19.363 58.833 45.242 115.526 77.126 168.634 23.831-10.1 48.454-18.246 73.728-24.297v-310.644c0-5.027-3.956-9.123-8.983-9.123l-179.060-0.047zM854.109 819.479v-394.938c-88.111 23.273-167.843 74.1-226.397 145.129-31.744 38.353-56.46 81.501-73.495 128.14-15.407 41.984-24.204 85.876-26.205 130.746h317.068c4.98 0 9.030-4.049 9.030-9.076v0zM175.151 828.556h315.904c-1.955-44.404-10.566-87.924-25.693-129.629-16.756-46.313-41.146-89.088-72.378-127.395-31.046-37.981-67.817-70.284-109.428-96.070-36.631-22.621-76.055-39.703-117.481-50.641v394.659c0 5.027 4.096 9.076 9.076 9.076v0zM166.074 76.521v310.877c24.995 6.191 49.338 14.243 72.844 24.25 31.93-53.295 57.856-109.987 77.172-168.82 18.618-56.785 31.092-115.665 37.236-175.476h-178.176c-4.98 0-9.076 4.096-9.076 9.169v0z" />
<glyph unicode="&#xe914;" glyph-name="jfh-crs" d="M647.308 29.091c-17.548 0-37.097 2.095-57.856 4.189-49.478 5.12-105.612 5.12-155.043 0-20.806-2.095-40.355-4.189-57.903-4.189-18.618 0-45.615 2.095-64.977 19.549-17.129 15.639-25.507 40.355-25.507 75.636v331.031c0 132.561 109.149 132.561 224.908 132.561 117.76 0 227.095 0 227.095-132.561v-331.031c-0.047-85.364-51.712-95.185-90.717-95.185v0zM511.907 73.588c29.091 0 56.739-2.886 81.222-5.399 19.921-2.141 38.167-4.003 54.225-4.003 37.702 0 55.482 8.89 55.482 60.090v331.031c0 93.137-65.071 97.466-189.812 97.466-126.836 0-191.953-4.329-191.953-97.466v-331.031c0-24.902 4.655-41.1 13.964-49.664 14.103-12.707 50.641-11.171 95.744-6.423 24.39 2.607 52.131 5.399 81.129 5.399v0zM668.719 557.149h-35.049v54.644c0 71.168-54.598 129.024-121.763 129.024-67.025 0-121.716-57.903-121.716-129.024v-54.644h-35.049v54.644c0 90.438 70.377 164.073 156.765 164.073 86.481 0 156.812-73.588 156.812-164.073v-54.644zM582.144 738.909h-35.095c0 46.033-4.096 92.951-34.63 92.951-30.394 0-34.537-46.918-34.537-92.951h-35.049c0 38.353 0 128 69.585 128 69.725 0 69.725-89.647 69.725-128v0zM551.657 400.477h159.977v-35.049h-159.977v35.049zM547.98 321.536h159.93v-35.049h-159.93v35.049zM551.657 242.641h159.977v-35.095h-159.977v35.095z" />
<glyph unicode="&#xe915;" glyph-name="jfh-cyyjqx2" d="M604.113 650.473h-178.036c-10.519 0-17.455 7.028-17.455 17.501v181.527c-0.047 10.38 6.935 17.408 17.455 17.408h178.036c10.473 0 17.455-7.028 17.455-17.408v-178.083c0-10.473-10.519-20.945-17.455-20.945v0zM439.994 685.475h143.081v146.525h-143.081v-146.525zM872.867 374.691h-719.127c-10.519 0-17.455 7.028-17.455 17.455v55.901c0 27.927 24.39 52.317 52.364 52.317h645.818c27.974 0 52.364-24.39 52.364-52.317v-55.901c3.491-10.426-3.491-17.455-13.964-17.455v0zM171.148 409.553h680.774v38.493c0 10.473-6.935 17.455-17.501 17.455h-645.772c-10.473 0-17.501-6.982-17.501-17.455v-38.493zM736.721 472.436h-446.836c-6.935 0-14.010 3.491-14.010 10.566-3.444 6.889-3.444 13.871 3.491 17.361l139.636 178.083c3.537 3.491 7.028 6.982 13.964 6.982h171.055c6.935 0 10.473-3.491 13.871-6.982l139.729-178.083c3.444-7.028 3.444-13.917 3.444-17.361-10.38-3.584-17.315-10.566-24.343-10.566v0zM324.794 507.299h377.018l-111.709 143.127h-153.6l-111.709-143.127zM694.831 29.091c-10.426 0-17.361 7.028-17.361 17.408 0 21.039 10.333 41.937 24.343 52.364 17.501 14.010 27.974 35.002 27.974 59.345 0 24.39-10.473 45.382-27.974 59.299-17.408 14.057-27.927 31.558-27.927 52.457 0 10.426 6.935 17.361 17.408 17.361 10.519 0 17.455-6.935 17.455-17.361 0-10.566 3.537-17.455 10.566-24.39 27.881-20.992 41.798-52.364 41.798-87.366 0-34.956-13.964-66.281-41.798-87.273-6.982-6.935-10.566-13.871-10.566-24.436 3.584-6.842-3.398-17.408-13.917-17.408v0zM485.376 29.091c-10.473 0-17.455 7.028-17.455 17.408 0 21.039 10.519 41.937 24.39 52.364 17.455 14.010 27.974 35.002 27.974 59.345 0 24.39-10.519 45.382-27.974 59.299-17.455 14.057-27.881 31.558-27.881 52.457 0 10.426 6.982 17.361 17.455 17.361 10.426 0 17.455-6.935 17.455-17.361 0-10.566 3.444-17.455 10.473-24.39 27.974-20.992 41.844-52.364 41.844-87.366 0-34.956-13.871-66.281-41.844-87.273-6.982-6.935-10.473-13.871-10.473-24.436 3.491-6.842-3.491-17.408-13.964-17.408v0zM275.875 29.091c-10.38 0-17.361 7.028-17.361 17.408 0 21.039 10.426 41.937 24.39 52.364 17.455 14.010 27.927 35.002 27.927 59.345 0 24.39-10.519 45.382-27.927 59.299-17.455 14.057-27.927 31.558-27.927 52.457 0 10.426 6.982 17.361 17.455 17.361 10.519 0 17.455-6.935 17.455-17.361 0-10.566 3.537-17.455 10.473-24.39 27.927-20.992 41.891-52.364 41.891-87.366 0-34.956-13.964-66.281-41.891-87.273-6.935-6.935-10.473-13.871-10.473-24.436 3.491-6.842-3.444-17.408-14.010-17.408v0z" />
<glyph unicode="&#xe916;" glyph-name="jfh-dbby" d="M886.225 336.617h-140.428c1.629 0-1.722 10.287-1.722 17.129v188.463c0 6.842-1.722 12.009-3.398 17.036h123.252c29.137 0 51.433 22.388 51.433 51.433v188.463c0 29.137-22.295 51.433-51.433 51.433h-548.166c-29.091 0-51.386-22.295-51.386-51.433v-188.416c0-6.889 1.722-11.962 3.398-17.129h-119.901c-27.369 0-54.784-22.342-54.784-51.386v-188.463c0-29.137 27.415-51.386 54.784-51.386h140.521c-1.722 0-8.611-12.009-8.611-17.129v-188.369c0-29.137 27.462-51.433 56.553-51.433h548.166c29.184 0 46.266 22.295 46.266 51.433v188.369c1.722 29.184-15.36 51.386-44.544 51.386v0zM298.682 799.139c0 10.38 6.796 17.175 17.082 17.175h548.166c10.287 0 17.129-6.796 17.129-17.175v-102.726h-344.297c-10.287 0-17.129-6.842-17.129-17.129s6.842-17.129 17.129-17.129h344.297v-51.386c0-10.287-6.842-17.129-17.129-17.129h-548.166c-10.287 0-17.082 6.842-17.082 17.129v188.369zM144.477 336.617c-10.287 0-17.129 6.842-17.129 17.129v136.983h176.407c10.287 0 17.175 6.935 17.175 17.129 0 10.333-6.889 17.222-17.175 17.222h-176.407v17.129c0 10.287 6.842 17.036 17.129 17.036h548.212c10.24 0 17.129-6.796 17.129-17.036v-188.463c0-10.287-6.889-17.129-17.129-17.129h-548.212zM881.105 79.732h-548.166c-10.287 0-17.175 6.796-17.175 17.129v68.515h176.454c10.333 0 17.175 6.796 17.175 17.082s-6.842 17.129-17.175 17.129h-176.454v85.644c0 10.333 6.842 17.129 17.175 17.129h548.166c10.333 0 17.129-6.796 17.129-17.129v-17.129h-344.297c-10.287 0-17.129-6.796-17.129-17.082 0-10.333 6.842-17.082 17.129-17.082h344.297v-137.030c0-10.426-6.842-17.175-17.129-17.175v0zM422.028 525.126h-58.275c-10.287 0-17.129-6.889-17.129-17.222 0-10.193 6.842-17.129 17.129-17.129h58.228c10.287 0 17.129 6.935 17.129 17.129 0.047 10.333-6.796 17.222-17.082 17.222v0z" />
<glyph unicode="&#xe917;" glyph-name="jfh-fsdp" d="M923.136 625.478l-239.337 145.548c-2.513 1.443-5.353 4.096-8.239 4.096h-56.925c-6.889 0-12.986-6.237-15.174-12.753-12.102-35.84-46.499-61.812-83.549-61.812-37.097 0-71.401 26.391-83.549 62.324-2.188 6.516-8.285 12.241-15.127 12.241h-72.89c-2.886 0-5.725-2.653-8.145-4.096l-239.337-144.663c-6.703-4.003-9.495-12.66-6.703-19.921l55.808-143.872c3.025-7.82 11.636-12.148 19.735-9.542l130.327 41.146-7.494-360.727c-0.047-4.282 1.629-6.609 4.515-9.681 3.025-2.979 7.121-2.886 11.497-2.886h398.988c8.89 0 16.012 5.26 16.012 14.010 0 0.884-0.047 0.884-0.14 1.629l-7.447 360.308 130.095-43.66c7.773-2.513 16.291 1.024 19.642 8.564l63.86 143.639c3.258 7.401 0.465 15.919-6.423 20.108zM842.38 487.796l-137.821 45.987c-4.934 1.676-10.333 0.838-14.522-2.327-4.236-3.025-6.656-6.097-6.563-11.311l7.68-367.43h-366.313l7.68 364.73c0.093 5.213-2.327 9.169-6.377 12.241-4.189 3.025-9.542 3.537-14.429 1.908l-137.402-43.567-45.615 118.924 224.116 136.239h57.577c19.363-47.895 62.836-71.82 109.521-71.82 46.778 0 90.252 23.924 109.521 71.82h41.658l223.511-135.959-52.224-119.436z" />
<glyph unicode="&#xe918;" glyph-name="jfh-khqj" d="M915.409 502.086c-0.512 0.559-1.071 1.024-1.676 1.583l-76.893 67.677c0 0.14 0.093 0.233 0.093 0.465v180.503c0 53.248-43.427 96.582-96.628 96.582-53.295 0-96.628-43.38-96.628-96.582v-10.752l-113.431 99.887c-7.773 6.796-19.409 6.842-27.183 0.14l-392.657-337.827c-0.605-0.512-1.21-1.024-1.769-1.676-10.007-10.938-15.546-25.367-15.546-40.681 0-32.303 24.809-58.554 55.296-58.554h18.897v-335.034c0-11.45 9.263-20.713 20.713-20.713h652.893c11.45 0 20.713 9.263 20.713 20.713v335.034h14.010c30.487 0 55.296 26.205 55.296 58.554 0 15.22-5.539 29.696-15.5 40.681v0zM685.149 752.314c0 30.394 24.716 55.156 55.203 55.156 30.394 0 55.249-24.716 55.249-55.156v-144.477l-110.452 97.14v47.337zM429.801 88.483l6.703 101.748c0 0.372 0 0.838 0 1.164 0 41.751 33.932 75.729 75.636 75.729s75.636-33.932 75.636-75.729c0-0.372 0-0.838 0.093-1.164l6.656-101.748h-164.724zM875.66 444.323h-25.46c-1.629 0-3.165-0.279-4.701-0.605-1.396 0.326-2.979 0.605-4.608 0.605-11.45 0-20.713-9.263-20.713-20.713v-335.081h-188.23l-6.796 103.564c-0.372 62.045-50.921 112.314-112.966 112.314s-112.593-50.269-112.919-112.314l-6.796-103.564h-183.761v335.081c0 11.45-9.263 20.713-20.713 20.713h-39.61c-7.494 0-13.871 7.82-13.871 17.082 0 4.515 1.443 8.751 4.049 11.962l377.856 325.073 369.012-324.98c2.7-3.212 4.049-7.494 4.049-12.055-0.047-9.263-6.33-17.082-13.824-17.082v0zM513.536 620.404c-71.68 0-129.955-58.275-129.955-129.955 0-71.633 58.321-129.908 129.955-129.908s129.955 58.275 129.955 129.908c0 71.68-58.368 129.955-129.955 129.955v0zM604.253 509.114h-72.099v72.145c36.212-7.354 64.745-35.933 72.099-72.145v0zM494.871 581.26v-72.145h-72.145c7.401 36.212 35.98 64.791 72.145 72.145v0zM422.726 471.878h72.145v-72.192c-36.166 7.447-64.745 35.933-72.145 72.192v0zM532.201 399.686v72.192h72.099c-7.401-36.259-35.933-64.745-72.099-72.192v0z" />
<glyph unicode="&#xe919;" glyph-name="jfh-ktqx" d="M857.367 226.351h-687.988c-24.809 0-46.127 17.734-49.617 39.005l-21.318 85.178c-7.075 21.271-7.075 45.987 0 67.351l46.127 237.568c0 7.168 10.659 14.196 17.734 14.196h702.185c7.075 0 14.196-7.028 17.734-14.196l46.127-237.568c3.444-21.318 3.444-46.080 0-67.351l-21.318-85.178c-7.121-24.809-28.393-39.005-49.664-39.005v0zM176.454 630.644l-46.127-219.881c-3.537-17.641-3.537-35.375 0-53.201l21.318-85.085c3.537-7.121 7.075-10.659 14.196-10.659h687.988c7.075 0 14.196 3.537 14.196 10.659l21.271 85.085c3.537 17.827 3.537 35.561 0 53.201l-46.127 223.418h-666.717v-3.537zM477.882 375.343h-354.63c-10.659 0-17.734 7.075-17.734 17.734 0 10.566 7.075 17.641 17.734 17.641h354.63c10.612 0 17.687-7.075 17.687-17.641 0-10.612-7.075-17.734-17.687-17.734v0zM655.22 375.343h-70.935c-10.612 0-17.687 7.075-17.687 17.734 0 10.566 7.075 17.641 17.687 17.641h70.935c10.659 0 17.78-7.075 17.78-17.641 0-10.612-7.075-17.734-17.78-17.734v0zM867.98 375.343h-106.403c-10.659 0-17.734 7.075-17.734 17.734 0 10.566 7.075 17.641 17.734 17.641h106.403c10.659 0 17.734-7.075 17.734-17.641 0-10.612-7.075-17.734-17.734-17.734v0z" />
<glyph unicode="&#xe91a;" glyph-name="jfh-rhzds" d="M628.131 299.706c35.887 10.752 122.135 8.797 144.244 66.141-20.015 38.726-21.364 35.375-24.623 89.367-0.559 56.739 36.492 395.404-154.81 387.863 0 0-74.054 63.116-205.917-16.384-152.343-98.211-79.174-431.663-131.491-446.929 0 0-14.15-59.485 138.799-83.549-46.732-87.831-266.333-49.524-275.782-267.124h786.897c-11.031 209.548-243.945 188.23-277.318 270.615v0zM162.071 67.165c14.196 126.511 240.361 124.649 273.082 219.089 1.583 29.277-0.279 45.754 0 45.754-109.335 8.052-135.633 34.397-135.633 34.397 42.822 51.759-18.944 339.828 104.448 421.702 116.643 72.192 173.568 15.034 173.568 15.034 175.663 28.998 120.879-309.108 131.863-348.765 2.886-49.152 0.326-52.922 17.967-87.971-24.529-24.762-140.707-35.375-140.707-35.375l0.931-46.033c55.808-113.478 237.521-72.425 270.15-217.833-10.007-3.77-695.668 0-695.668 0v0z" />
<glyph unicode="&#xe91b;" glyph-name="jfh-rjhg" d="M469.923 741.19h24.25v-13.359c0-2.746 0.791-5.073 1.908-7.261 1.164-6.377 6.47-11.171 12.986-11.171 4.515 0 8.285 2.281 10.705 5.725 3.956 2.932 6.703 7.401 6.703 12.707v13.359h18.804c8.89 0 16.151 7.401 16.151 16.244 0 8.937-7.261 16.198-16.151 16.198h-18.804v20.201c0 8.937-7.261 16.198-16.244 16.198-8.937 0-16.105-7.261-16.105-16.198v-20.201h-24.25c-8.89 0-16.198-7.261-16.198-16.198 0.093-8.844 7.354-16.244 16.244-16.244v0 0zM817.012 66.979c22.202 30.348 15.22 72.192 11.264 88.809l-0.977 2.979c-43.66 105.984-134.377 183.994-242.548 208.198l-6.796 1.629 5.725 4.096c66.979 47.616 108.591 148.433 108.591 263.168 0 75.078-18.479 146.339-52.131 200.611l-3.444 5.585-6.191 2.281c-40.82 14.988-84.154 22.575-128.931 22.575s-88.064-7.587-128.838-22.528l-6.144-2.327-3.491-5.585c-33.606-54.272-52.131-125.487-52.131-200.611 0-116.736 44.637-221.51 113.711-266.892l5.725-3.91-6.563-1.722c-102.353-28.16-185.111-102.912-227.142-204.8l-0.977-2.979c-3.91-16.384-10.938-58.182 11.311-88.529 8.751-12.009 25.553-26.624 56.46-28.719 29.463-2.095 113.059-4.096 248.553-6.191h0.931l0.233-3.025-0.047 2.979c134.749 2.095 218.065 4.189 247.389 6.191 30.86 2.095 47.709 16.756 56.46 28.719v0 0zM350.161 654.15c2.607 59.485 16.943 113.385 41.379 155.648l0.652 1.024 1.117 0.372c34.351 11.683 70.796 17.641 108.311 17.641 37.562 0 74.1-5.958 108.497-17.641l1.117-0.372 0.559-1.024c24.436-42.263 38.726-96.070 41.425-155.462l0.14-3.91-3.91 0.745c-47.151 9.216-96.442 13.964-146.432 13.964-64.838 0-116.829-7.727-149.039-14.196l-3.956-0.791 0.14 4.003zM350.068 608.396l-0.14 2.7 2.653 0.559c26.298 5.725 80.896 15.127 151.226 15.127 50.688 0 100.119-5.027 146.897-14.895l2.746-0.559-0.233-2.653c-8.518-126.604-75.078-225.699-151.552-225.699-76.381 0.047-142.895 99.049-151.599 225.42v0 0zM512.605 70.191c-2.234 0.093-217.926 4.096-246.412 6.097-13.265 0.931-22.528 5.167-28.346 13.172-12.8 17.455-7.354 47.011-5.353 55.715 48.547 116.271 157.044 191.535 276.34 192.093l6.097-0.093c119.668-0.465 228.212-75.729 276.527-191.535 2.141-8.983 7.54-38.726-5.26-56.18-5.679-8.006-14.988-12.288-28.253-13.172-28.998-2.001-111.523-4.003-245.341-6.097v0 0z" />
<glyph unicode="&#xe91c;" glyph-name="jfh-sfby" d="M817.012 560.268h-32.303v119.017c0 50.176-40.82 90.81-91.183 90.81h-383.069c-50.409 0-91.229-40.634-91.229-90.81v-117.713h-32.349v117.713c0 67.91 55.389 123.113 123.532 123.113h383.069c68.049 0 123.485-55.203 123.485-123.113v-119.017zM218.391 593.78l0.791-32.209c-33.839-0.791-61.393-16.244-77.684-39.471-15.965-22.761-21.178-53.155-10.612-84.387 1.629-4.841 19.921-27.741 31.139-41.705 3.91-4.887 6.935-8.657 8.145-10.24 10.985-14.801 19.503-28.253 25.274-40.634 1.955-4.282 3.863-8.564 5.725-13.033 9.728-23.692 17.455-49.338 23.040-74.845 2.001-8.983 3.631-17.315 4.841-24.669 0.745-4.515 1.164-7.587 1.35-9.123 0.605-4.934 3.258-9.263 6.982-12.102l-19.549-25.74c-10.845 8.332-17.78 20.34-19.456 33.839-0.14 1.257-0.512 3.956-1.117 7.773-1.164 6.935-2.653 14.662-4.468 23.040-5.632 25.367-12.847 48.687-21.364 69.492-1.676 4.049-3.398 8.006-5.167 11.776-4.655 10.054-11.729 21.411-21.83 34.909-1.117 1.489-3.91 4.887-7.447 9.309-28.858 35.933-33.978 43.66-36.678 51.665-13.312 39.657-7.959 80.896 14.755 113.199 23.040 32.768 60.695 52.177 103.331 53.155zM205.126 211.316h32.256v-67.258c0-10.054 8.192-18.199 18.292-18.199 10.007 0 18.246 8.145 18.246 18.199v54.412h32.256v-54.412c0-27.788-22.668-50.409-50.455-50.409-27.881 0-50.548 22.621-50.548 50.409v67.258zM273.92 166.214v32.209h483.468v-32.209h-483.468zM725.132 198.47h32.209v-54.412c0-10.054 8.145-18.199 18.339-18.199 10.1 0 18.199 8.145 18.199 18.199v72.611c0 1.583-0.233 3.119-0.605 4.655l31.185 8.378c1.164-4.282 1.676-8.704 1.676-12.986v-72.611c0-27.788-22.575-50.409-50.455-50.409-27.927 0-50.548 22.621-50.548 50.409v54.365zM824.553 213.457l-31.325 7.82c0.279 0.698 0.372 1.443 0.465 2.141 0.186 1.536 0.652 4.655 1.35 9.123 1.21 7.354 2.839 15.686 4.841 24.669 5.632 25.553 13.265 51.2 23.087 74.845 1.815 4.515 3.724 8.751 5.679 13.033 5.772 12.381 14.243 25.833 25.274 40.634 1.164 1.583 4.236 5.306 8.145 10.24 11.264 14.010 29.556 36.864 31.139 41.705 11.404 33.978 4.422 66.886-14.941 90.205-20.154 24.157-53.62 37.981-93.556 32.349l-4.561 31.977c48.361 6.842 94.348-9.449 122.88-43.706 27.415-32.861 35.235-78.15 20.806-121.111-2.746-8.052-7.587-15.407-36.631-51.619-3.537-4.468-6.33-7.866-7.447-9.356-10.054-13.498-17.129-24.902-21.83-34.816-1.769-3.91-3.444-7.866-5.167-11.869-8.611-20.806-15.732-44.218-21.364-69.492-1.862-8.378-3.351-16.105-4.515-23.040-0.605-3.77-1.024-6.33-1.117-7.727-0.326-2.095-0.652-4.003-1.21-6.004zM764.649 594.013l15.453-28.439c-0.884-0.419-2.932-1.536-5.772-2.932-10.38-5.446-30.208-15.779-31.372-17.129l-131.305-165.516-25.274 20.061 131.351 165.469c4.98 6.33 7.727 8.052 41.705 25.786l5.213 2.7zM611.654 412.207v-32.256h-210.060v32.256h210.060zM418.63 406.947l-20.247-25.181c-11.729 9.495-49.059 53.062-84.061 94.022-34.909 40.82-67.584 78.941-70.33 77.964l-32.489-0.326 0.14 22.807 21.132 7.82c23.831 8.751 25.367 6.935 106.077-87.319 28.020-32.721 70.377-82.246 79.779-89.786zM219.183 561.524v0 0zM217.833 185.577v0zM237.382 211.316v0zM273.92 166.214v-0zM757.341 166.214v0zM757.341 198.47v0zM824.553 213.457v0zM793.228 221.277v0zM817.012 560.268v0zM780.335 565.713v0 0zM611.654 379.951v0zM611.654 379.951v0zM401.594 379.951c-0.605 0-1.676 0.652-3.212 1.815l3.212 4.049v-5.865zM401.594 385.815v26.391c10.38 0 16.803-5.073 17.036-5.26l-17.036-21.132z" />
<glyph unicode="&#xe91d;" glyph-name="jfh-sjhg" d="M820.131 466.991v-1.024l0.791-2.979c14.801-4.143 28.113-14.615 38.167-29.044v-0.512c11.124-16.384 17.082-38.4 17.082-61.626 0-23.645-6.516-45.987-17.082-62.417l-0.977-0.745c-12.102-18.060-30.208-29.37-50.548-29.37-2.327 0-4.329 0-6.656 0.372-6.284-18.060-13.498-34.676-21.83-51.526-12.102-23.412-26.438-45.987-42.775-66.607-23.645-30.348-48.78-55.296-74.193-75.45-48.5-37.935-98.816-56.972-150.109-56.972-50.828 0-101.609 18.804-149.923 57.065-25.693 20.201-50.548 45.103-74.473 75.45-16.058 20.573-30.441 42.822-42.496 66.607-8.332 16.849-15.825 33.513-21.83 51.526-2.327-0.372-4.608-0.372-6.796-0.372-20.666 0-38.726 11.543-51.060 30.068v0c-10.845 16.431-17.641 38.772-17.641 62.417s6.796 45.894 17.641 62.092c10.007 14.429 23.087 24.902 38.214 29.044l0.465 3.444v1.583h-0.186v322.188c0 22.807 26.903 39.936 71.401 51.014 137.868 34.257 336.71 34.257 474.624 0 44.032-11.031 70.191-28.207 70.191-51.014v-323.212zM476.765 763.252v0-44.963h-45.009c-19.875 0-35.747-15.872-35.747-35.514 0-19.596 15.872-35.7 35.747-35.7h45.009v-44.87c0-19.037 15.872-35.375 35.235-35.375 19.642 0 35.421 16.337 35.421 35.375v44.87h45.103c19.549 0 35.7 16.058 35.7 35.7s-16.151 35.514-35.7 35.514h-45.103v44.963c0 19.596-15.779 35.235-35.421 35.235-19.363 0.047-35.235-15.593-35.235-35.235v0 0zM260.934 301.94v0c40.774 15.639 84.061 27.741 128.047 35.468 44.218 8.285 90.298 12.614 136.564 12.614 43.334 0 86.063-3.817 127.255-10.799 38.772-6.842 76.707-16.617 113.245-28.672l0.977 2.793c0.512 2.327 1.536 4.329 2.979 6.516 6.796 9.263 20.154 11.543 29.743 4.934 1.164-0.652 2.234-1.676 4.003-2.188h0.512c0.977-0.512 2.048-0.977 3.305-0.977 5.446 0 11.031 4.329 15.825 11.031v0.652c6.284 9.402 10.612 22.993 10.612 38.633 0 15.081-4.049 28.672-10.426 38.26l-0.186 0.512c-4.561 6.842-10.38 11.031-15.825 11.031v0.186l-1.071-0.279h-0.977c-0.791-0.233-1.769-0.233-2.839-0.512-11.543-0.512-21.597 8.006-22.575 19.642l-0.977 13.591v6.516c-1.024 2.048-1.536 3.77-1.536 5.492-1.955 4.049-27.183 10.333-68.096 17.641-50.129 9.076-119.808 14.662-197.492 14.662-77.452 0-147.409-5.585-197.679-14.941-38.447-6.749-63.116-12.753-66.932-15.732l-1.21-6.609c-0.977-5.958-1.489-13.033-2.001-20.34l-0.233-1.862c-1.536-11.45-12.102-19.503-24.204-17.827l-2.513 0.233h-0.745c-5.26 0-10.799-4.189-15.825-11.031v-0.233c-6.097-9.309-10.38-23.18-10.38-38.54 0-15.639 4.282-29.231 10.38-38.633 4.98-6.842 10.566-11.683 15.825-11.683 1.21 0 2.746 0.512 3.724 0.977 1.257 0 2.281 1.024 3.537 1.536 2.001 1.629 4.282 2.932 7.54 3.537 11.031 3.305 22.621-3.025 25.879-14.383l3.77-11.217zM751.663 270.476v0c-34.164 11.59-69.632 20.433-105.798 26.438-39.005 7.075-79.267 10.659-120.32 10.659-44.451 0-87.505-4.189-128.791-11.683-41.472-7.494-82.013-19.037-120.925-33.652 2.234-4.608 4.515-9.821 6.982-14.615v-0.233c10.612-20.852 23.412-40.913 38.493-59.345v-0.233c21.364-27.695 43.985-50.595 66.932-68.515 40.215-31.651 82.479-47.756 123.718-47.756 41.519 0 83.27 16.151 124.276 47.756 22.621 17.92 45.009 40.82 66.653 68.515 14.569 18.292 27.415 38.214 38.214 59.811 3.863 7.121 7.913 15.127 10.566 22.854v0 0zM777.309 509.254v0 279.692h0.279v1.257l-38.214 9.775c-131.258 32.721-322.467 32.442-453.725 0.512-23.645-6.051-38.26-9.868-39.005-10.287v-280.948c16.151 6.47 36.212 12.055 59.857 16.337 53.341 9.728 125.999 15.872 205.498 15.872 79.453 0 151.971-6.097 204.986-15.686 23.645-4.468 44.497-10.054 60.323-16.524v0 0z" />
<glyph unicode="&#xe91e;" glyph-name="jfh-smcx" d="M883.619 580.236c-3.398 5.399-10.24 7.68-16.244 5.353-1.117-0.419-116.829-44.544-184.646-44.544-17.967 0-30.673 3.258-35.747 9.123-1.024 1.21-4.236 5.027-2.513 15.127 2.932 17.501 0.791 30.255-6.609 38.912-3.91 4.701-11.404 10.333-24.39 10.333-37.562 0-102.865-51.107-110.406-57.065-1.164-0.931-118.691-96.954-194.234-109.335-181.155-29.649-211.596-81.687-214.435-87.599-0.977-2.095-1.443-4.375-1.303-6.796 3.212-48.64 63.162-72.285 183.296-72.285 122.88 0 262.47 24.716 290.397 32.628 21.783 6.889 46.452 12.614 72.378 17.455l0.326-35.561c0.047-7.354 6.097-13.359 13.452-13.359v0l258.095 0.279c3.584 0 7.028 1.35 9.588 3.817 2.513 2.653 3.956 6.004 3.956 9.635l-0.047 66.188c0.977 1.536 1.629 3.072 2.048 4.98 20.899 110.499-40.308 208.617-42.961 212.713v0zM120.739 351.092c9.263 10.659 50.548 47.197 192.559 70.377 6.935 1.117 14.103 2.886 21.457 5.073-11.962-30.301-22.249-76.847 3.025-116.224-20.62-1.257-41.286-1.908-61.393-1.908-92.579 0.047-148.62 15.5-155.648 42.682v0zM559.151 339.921c-20.34-5.632-110.406-21.83-205.545-28.625-31.418 40.727-14.569 93.37-1.722 121.158 40.122 15.313 83.084 42.077 115.526 64.652l27.322-27.276c1.35-1.303 3.025-1.955 4.794-1.955s3.444 0.652 4.748 1.955c2.653 2.653 2.653 6.982 0 9.635l-25.693 25.6c7.68 5.492 14.522 10.566 20.387 15.034l29.137-29.324c1.35-1.303 3.072-1.908 4.841-1.908s3.398 0.605 4.794 1.908c2.7 2.653 2.7 6.982 0 9.635l-28.020 27.974c5.958 4.655 9.635 7.633 10.38 8.239 2.793 2.234 5.818 4.655 9.169 7.075l30.953-30.86c1.35-1.443 2.979-2.048 4.794-2.048 1.722 0 3.444 0.652 4.794 2.048 2.607 2.607 2.607 6.889 0 9.449l-29.324 29.37c25.088 17.455 56.785 36.026 73.123 36.026 2.234 0 3.491-0.419 3.863-0.745 0.093-0.14 2.793-3.491 0.559-17.036-2.467-14.988 0.419-27.369 8.518-37.004 10.659-12.614 29.137-18.758 56.32-18.758 60.788 0 152.111 31.046 183.436 42.356 12.94-24.204 44.451-91.881 36.352-166.772l-89.553-10.287c-76.288-5.26-180.317-16.244-253.952-39.517v0zM666.345 309.713l-0.233 25.367 146.572 16.803c36.678 2.56 67.258 3.817 84.759 4.282l0.047-46.266-231.145-0.186z" />
<glyph unicode="&#xe91f;" glyph-name="jfh-wsjsdbj" d="M791.924 29.091h-563.665c-30.441 0-57.065 26.717-57.065 57.111v426.543c0 30.534 26.624 57.065 57.065 57.065h567.436c30.441 0 57.158-26.484 57.158-57.065v-426.543c-3.91-30.394-26.717-57.111-60.928-57.111v0zM228.259 531.782c-11.404 0-18.991-7.68-18.991-19.037v-426.543c0-11.357 7.587-18.944 18.991-18.944h567.436c11.404 0 18.991 7.587 18.991 18.944v426.543c0 11.357-7.587 19.037-18.991 19.037h-567.436zM624.268 531.782h-228.399c-76.195 0-137.169 61.021-137.169 137.076v34.304c0 11.45 7.68 18.944 19.037 18.944h464.663c11.311 0 19.037-7.494 19.037-18.944v-34.304c0-76.102-60.975-137.076-137.169-137.076v0zM296.82 684.032v-15.174c0-53.341 45.661-99.095 99.002-99.095h228.399c53.295 0 99.095 45.754 99.095 99.095v15.174h-426.496zM765.161 295.703h-533.132c-11.404 0-19.037 7.68-19.037 18.991 0 11.497 11.45 19.084 19.037 19.084h533.132c11.45 0 19.037-7.587 19.037-19.084 0.047-11.311-7.54-18.991-19.037-18.991v0zM536.762 409.972h-76.148c-11.45 0-19.13 7.54-19.13 19.037 0 11.404 7.633 18.991 19.13 18.991h76.195c11.311 0 19.037-7.587 19.037-18.991-0.047-11.497-7.773-19.037-19.084-19.037v0zM559.523 684.032h-98.909c-11.45 0-19.13 7.727-19.13 19.13v144.71c0 11.404 7.633 19.037 19.13 19.037h98.956c11.45 0 19.037-7.633 19.037-19.037v-140.893c0-11.404-7.587-22.947-19.084-22.947v0zM479.651 722.153h60.881v106.682h-60.881v-106.682zM650.892 790.668h-76.195c-11.311 0-18.897 7.727-18.897 19.084 0 11.404 11.311 19.037 18.897 19.037h76.195c11.45 0 19.037-7.633 19.037-19.037 0.047-11.357-7.587-19.084-19.037-19.084v0z" />
<glyph unicode="&#xe920;" glyph-name="jfh-xgql" d="M883.712 866.909h-743.377c-26.065 0-47.244-21.178-47.244-47.244v-771.258c0-10.612 8.751-19.316 19.316-19.316s19.223 8.751 19.223 19.316v53.853c2.932-0.884 5.818-0.884 8.704-0.884h743.424c2.839 0 5.772 0 8.751 0.884v-53.853c0-10.612 8.564-19.316 19.13-19.316s19.27 8.704 19.27 19.316v771.258c0 26.065-21.178 47.244-47.197 47.244v0zM304.966 140.753v87.738c0 5.679-3.817 9.588-9.542 9.588-5.772 0-9.681-3.91-9.681-9.588v-87.738h-57.856v47.197c0 5.818-3.724 9.635-9.588 9.635-5.725 0-9.635-3.817-9.635-9.635v-47.197h-68.329c-4.841 0-8.704 3.91-8.704 8.751v441.018h361.146v-445.859c0-1.862 0-2.932 0.977-4.841h-188.788v0.931zM892.463 149.504c0-4.841-3.91-8.751-8.751-8.751h-353.373c0 2.048 0.884 2.932 0.884 4.887v444.881h361.239v-441.018zM892.463 629.993h-760.832v189.673c0 4.841 3.863 8.704 8.704 8.704h743.424c4.841 0 8.751-3.863 8.751-8.704v-189.673h-0.047zM563.991 750.313h-103.983c-10.612 0-19.223-8.657-19.223-19.223s8.657-19.316 19.223-19.316h103.983c10.612 0 19.27 8.704 19.27 19.316s-8.657 19.223-19.27 19.223v0zM631.389 314.135c10.566 0 19.27 8.657 19.27 19.223v61.626c0 10.612-8.751 19.316-19.27 19.316-10.473 0-19.177-8.751-19.177-19.316v-61.626c0-10.566 8.751-19.223 19.177-19.223v0zM392.611 414.301c-10.566 0-19.27-8.751-19.27-19.316v-61.626c0-10.612 8.751-19.223 19.27-19.223 10.659 0 19.223 8.657 19.223 19.223v61.626c0 10.612-8.564 19.316-19.223 19.316v0z" />
<glyph unicode="&#xe921;" glyph-name="jfh-xlyh" d="M641.583 667.089c-10.612 0-19.13 8.657-19.13 19.223v142.196h-104.96v-142.196c0-10.612-8.564-19.223-19.27-19.223-10.659 0-19.13 8.657-19.13 19.223v161.513c0 10.566 8.518 19.084 19.13 19.084h143.36c10.612 0 19.223-8.518 19.223-19.084v-161.513c0-10.612-8.611-19.223-19.223-19.223v0zM202.007 654.755c-10.612 0-19.177 8.564-19.177 19.316v33.047c0 47.942 38.959 86.947 86.9 86.947h215.366c10.566 0 19.223-8.611 19.223-19.177s-8.704-19.223-19.223-19.223h-215.319c-26.764 0-48.5-21.783-48.5-48.5v-33.094c-0.047-10.752-8.564-19.316-19.27-19.316v0zM751.523 29.091h-351.279c-41.798 0-75.869 34.071-75.869 75.869v517.446c0 41.891 34.071 75.962 75.869 75.962h351.232c41.798 0 75.823-34.071 75.823-75.962v-517.446c0-41.798-33.978-75.869-75.776-75.869v0zM400.244 659.968c-20.666 0-37.516-16.896-37.516-37.562v-517.446c0-20.62 16.849-37.469 37.516-37.469h351.232c20.62 0 37.423 16.803 37.423 37.469v517.446c0 20.666-16.756 37.562-37.423 37.562h-351.232zM407.599 341.271c-10.612 0-19.177 8.611-19.177 19.177v246.272c0 10.612 8.611 19.177 19.177 19.177s19.177-8.611 19.177-19.177v-246.272c0-10.566-8.611-19.177-19.177-19.177v0zM407.599 178.129c-10.612 0-19.177 8.611-19.177 19.223v101.050c0 10.612 8.611 19.177 19.177 19.177s19.177-8.611 19.177-19.177v-101.050c0-10.612-8.611-19.223-19.177-19.223v0zM157.044 471.878c-19.689 0-38.307 10.845-47.383 27.369-11.823 21.737-6.284 48.78 16.617 80.337 14.615 20.34 31.744 35.607 32.396 36.399l18.711 16.803 11.357-22.435c30.58-61.3 23.831-95.697 12.707-113.757-9.821-15.686-25.926-24.716-44.404-24.716v0zM165.423 567.343c-2.839-3.351-5.632-6.935-8.378-10.752-12.474-17.315-17.594-31.884-13.731-38.912 2.467-4.375 7.866-7.401 13.731-7.401 3.631 0 8.378 1.164 11.683 6.516 2.513 4.003 8.378 18.106-3.305 50.548v0z" />
<glyph unicode="&#xe922;" glyph-name="jfh-xyjqx" d="M789.364 866.909h-554.682c-58.927 0-106.682-47.756-106.682-106.636v-624.5c0-58.88 47.756-106.682 106.682-106.682h554.682c58.927 0 106.636 47.802 106.636 106.682v624.5c0 58.88-47.709 106.636-106.636 106.636v0zM234.682 828.090h554.682c37.423 0 67.817-30.301 67.817-67.817v-48.454h-690.409v48.454c0 37.516 30.394 67.817 67.91 67.817v0zM789.364 67.956h-554.682c-37.516 0-67.91 30.301-67.91 67.817v537.181h690.409v-537.181c0-37.516-30.394-67.817-67.817-67.817v0zM512.931 625.664c-141.079 0-255.953-114.828-255.953-255.953 0-141.172 114.874-256 255.953-256 141.172 0 256.093 114.828 256.093 256-0.047 141.172-114.921 255.953-256.093 255.953v0zM512.931 586.938c105.193 0 192.977-75.078 212.992-174.406-1.583-1.117-3.025-2.56-4.282-4.282-0.14-0.186-13.312-18.013-35.7-36.073-20.015-16.151-51.293-35.468-86.993-35.468-34.863 0-59.811 18.385-86.156 37.795-27.834 20.527-56.646 41.751-97.513 41.751-50.316 0-93.463-33.187-119.249-58.694-0.233 4.049-0.372 8.052-0.372 12.148 0.093 119.808 97.513 217.228 217.274 217.228v0zM512.931 152.483c-98.63 0-182.132 66.141-208.477 156.393 10.752 13.591 57.856 68.561 110.918 68.561 28.113 0 49.617-15.825 74.519-34.164 28.765-21.225 61.44-45.289 109.149-45.289 58.089 0 104.774 35.7 130.932 61.393-5.399-114.921-100.678-206.895-217.041-206.895v0zM270.569 738.164c16.012 0 29.091 13.033 29.091 29.044 0 16.105-13.079 29.137-29.091 29.137-16.058 0-29.091-13.033-29.091-29.137 0-15.965 13.033-29.044 29.091-29.044v0zM367.523 738.164c16.012 0 29.091 13.033 29.091 29.044 0 16.105-13.079 29.137-29.091 29.137-16.058 0-29.091-13.033-29.091-29.137 0-15.965 13.033-29.044 29.091-29.044v0z" />
<glyph unicode="&#xe923;" glyph-name="jfh-ycglgh" d="M853.271 135.401h-682.729c-42.729 0-77.452 36.864-77.452 82.246 0 5.772 1.489 9.681 3.398 12.8 2.746 6.749 9.076 11.404 16.384 11.404 9.914 0 17.873-8.471 17.873-18.897 0-3.77-0.652-6.982-1.676-9.681 2.095-22.295 19.782-39.75 41.472-39.75h682.915c21.69 0 39.377 17.455 41.519 39.75-1.071 2.513-1.722 5.632-1.722 9.681 0 10.473 7.959 18.897 17.92 18.897 7.354 0 13.638-4.701 16.431-11.404 1.815-3.119 3.305-7.028 3.305-12.8-0.233-45.382-34.909-82.246-77.638-82.246v0zM853.271 29.091h-682.729c-42.729 0-77.452 36.864-77.452 82.106 0 5.772 1.489 9.728 3.398 12.8 2.746 6.749 9.076 11.404 16.384 11.404 9.914 0 17.873-8.471 17.873-18.897 0-3.77-0.652-6.982-1.676-9.681 2.095-22.388 19.782-39.843 41.472-39.843h682.915c21.69 0 39.377 17.455 41.519 39.843-1.071 2.513-1.722 5.632-1.722 9.681 0 10.473 7.959 18.897 17.92 18.897 7.354 0 13.638-4.701 16.431-11.404 1.815-3.072 3.305-7.028 3.305-12.8-0.233-45.242-34.909-82.106-77.638-82.106v0zM853.271 239.709h-682.729c-20.015 0-39.145 8.332-53.667 23.226-15.407 15.5-23.785 36.352-23.785 58.88 0 5.073 1.257 8.844 2.746 11.823 2.095 7.308 10.054 20.852 38.912 50.129 26.252 26.764 59.345 55.063 92.812 79.5 69.26 50.502 172.963 110.918 284.16 110.918 111.104 0 214.854-60.416 284.113-110.918 33.42-24.436 66.467-52.736 92.765-79.5 28.858-29.277 36.911-42.822 38.959-50.129 1.676-2.932 2.746-6.749 2.746-11.823 0-21.83-8.052-42.496-22.714-57.996-14.15-15.639-33.745-24.111-54.319-24.111v0zM129.071 317.44c1.024-10.426 5.26-20.015 12.614-27.462 7.82-7.913 18.199-12.428 28.905-12.428h682.915c11.171 0 21.504 4.701 29.463 13.079 6.935 7.354 11.171 16.756 12.055 26.903-0.652 1.536-1.071 3.351-1.489 5.353-16.803 28.719-197.213 213.551-381.58 213.551-184.32 0-364.497-184.972-381.533-213.83-0.326-1.769-0.698-3.724-1.35-5.167v0zM512.14 608.023c-9.914 0-17.873 8.471-17.873 18.991s7.959 18.851 17.873 18.851c48.175 0 87.319 39.657 87.319 90.531s-39.145 92.579-87.319 92.579c-48.221 0-87.366-41.705-87.366-92.579 0-2.932 0.186-5.679 0.419-8.657 0.884-10.519-6.33-19.503-16.198-20.62-9.868-0.791-18.572 6.796-19.363 17.129-0.419 4.003-0.419 7.959-0.419 11.962 0 71.959 55.11 130.7 122.927 130.7 67.724 0 122.88-58.508 122.88-130.7s-54.924-128.186-122.88-128.186v0zM510.883 551.843c-9.914 0-17.873 8.471-17.873 18.944v54.691c0 10.566 7.959 18.944 17.873 18.944 9.868 0 17.92-8.425 17.92-18.944v-54.691c-0.047-10.287-8.052-18.944-17.92-18.944v0z" />
<glyph unicode="&#xe924;" glyph-name="jfh-yczl" d="M857.135 866.909h-690.176c-24.716 0-44.823-20.759-44.823-46.173v-714.38c0-25.507 20.108-46.266 44.823-46.266h62.65v-30.999h64.093v30.999h436.736v-30.999h64.186v30.999h62.557c24.716 0 44.73 20.759 44.73 46.266v714.38c-0.047 25.414-20.061 46.173-44.777 46.173v0zM860.439 103.098h-696.879v210.106h696.925v-210.106h-0.047zM860.439 358.26h-696.879v211.596h696.925v-211.596h-0.047zM860.439 615.052h-696.879v208.943h696.925v-208.943h-0.047zM726.993 716.009h64.698c9.216 0 16.57 7.401 16.57 16.524v20.573c0 9.263-7.354 16.57-16.57 16.57h-64.698c-9.169 0-16.524-7.308-16.524-16.57v-20.527c0-9.169 7.354-16.57 16.524-16.57v0zM726.993 458.147h64.698c9.216 0 16.57 7.494 16.57 16.617v20.48c0 9.263-7.354 16.617-16.57 16.617h-64.698c-9.169 0-16.524-7.354-16.524-16.617v-20.48c0-9.123 7.354-16.617 16.524-16.617v0zM726.993 205.777h64.698c9.216 0 16.57 7.354 16.57 16.524v20.48c0 9.216-7.354 16.71-16.57 16.71h-64.698c-9.169 0-16.524-7.494-16.524-16.71v-20.48c0-9.169 7.354-16.524 16.524-16.524v0z" />
<glyph unicode="&#xe925;" glyph-name="jfh-yjhg" d="M383.441 729.786h23.831v-13.312c0-2.653 0.838-5.027 1.908-7.028 1.164-6.377 6.33-11.031 12.8-11.031 4.422 0 8.145 2.374 10.566 5.539 3.863 2.979 6.563 7.401 6.563 12.567v13.265h18.479c8.797 0 15.919 7.028 15.919 15.825 0 8.89-7.121 15.965-15.919 15.965h-18.479v19.828c0 8.797-7.121 15.919-15.965 15.919-8.751 0-15.872-7.121-15.872-15.919v-19.828h-23.831c-8.751 0-15.872-7.028-15.872-15.965 0-8.751 7.121-15.825 15.872-15.825v0zM747.055 156.113l-1.071 3.212c-44.591 108.311-135.866 185.251-243.945 209.594 65.257 46.499 109.475 146.292 109.475 264.89 0 75.311-18.525 146.944-52.317 201.449l-4.003 6.423-7.168 2.653c-82.292 30.208-176.64 30.208-258.886 0l-7.168-2.7-4.003-6.423c-33.792-54.458-52.364-126.138-52.364-201.449 0-121.856 46.592-223.837 114.688-268.614-100.538-27.788-185.716-102.4-228.305-205.871l-1.071-3.212c-4.096-16.943-11.217-59.764 11.776-91.136 9.030-12.288 26.484-27.508 58.508-29.743 29.556-2.141 112.5-4.143 247.808-6.191h1.164c134.051 2.048 217.041 4.049 246.644 6.191 31.884 2.234 49.478 17.455 58.508 29.743 22.9 31.372 15.779 74.193 11.729 91.183v0zM297.472 814.545c77.219 26.205 164.911 26.205 242.269 0 27.648-47.942 43.334-108.916 46.173-173.801-149.178 29.37-278.528 11.171-334.662-0.233 2.839 64.931 18.479 126.045 46.22 174.033v0zM253.207 618.729c45.103 9.775 179.247 32.256 330.705 0.233-9.263-137.169-81.175-248.18-165.329-248.18-84.108 0.047-155.974 110.918-165.376 247.948v0zM718.755 83.921c-5.585-7.633-14.755-11.776-27.834-12.66-30.673-2.141-118.737-4.282-261.492-6.423l0.372-23.599-1.489 23.599c-142.755 2.141-230.772 4.282-261.446 6.423-13.079 0.931-22.249 5.027-27.788 12.66-10.193 13.964-9.449 38.121-5.167 56.879 51.153 122.368 165.562 201.681 291.561 202.333l3.444-0.279c1.024 0 2.141 0 3.119 0 126.278-0.372 240.64-79.686 291.84-202.054 4.329-18.758 5.12-42.915-5.12-56.879v0zM914.106 163.887c-35.142 110.173-112.361 151.738-163.654 179.247-8.192 4.375-15.686 8.425-22.388 12.567-9.263 5.26-18.758 9.775-27.183 13.824-4.701 2.095-10.566 4.98-14.662 7.261 116.084 172.497 101.236 325.958 100.678 331.636-4.701 88.343-89.879 119.994-134.33 124.369l-14.569 1.489-2.932-29.231 14.615-1.489c4.189-0.512 103.284-11.311 107.799-97.373 0.047-0.652 2.886-32.628-4.561-82.572-33.792 13.452-84.34 16.57-91.229 16.943l-1.443-29.37c25.041-1.35 67.305-6.889 87.273-17.082-12.055-57.344-37.376-131.258-90.857-208.384l-1.583-3.025c-8.052-20.34 13.917-30.72 33.233-39.75 7.68-3.631 16.477-7.633 24.716-12.567 7.028-4.143 14.941-8.564 23.459-13.172 49.897-26.717 118.132-63.348 149.178-160.023 5.772-37.143 0.186-48.966-2.467-52.364-1.21-1.489-3.351-3.212-8.611-3.491-19.596-1.35-45.615-2.141-45.708-2.141l0.745-29.37c0 0 26.857 0.791 47.011 2.001 12.521 0.977 22.528 5.911 29.556 14.662 11.636 14.522 14.289 38.353 7.913 77.405v0z" />
<glyph unicode="&#xe926;" glyph-name="jfh-ysfw" d="M749.661 496.128c-35.049 42.403-78.429 65.489-134.516 64.372-49.897-1.024-100.073-2.839-149.923 0.559-72.239 4.841-125.673-25.041-170.775-78.289-50.921-59.997-81.082-130.095-105.937-203.311-45.475-221.882 188.928-282.717 330.007-235.287 22.202 7.447 39.796 23.226 39.75 49.105-0.093 26.95-14.662 45.475-40.96 52.876-28.113 7.913-56.972 13.033-84.666 22.063-32.535 10.659-102.679 13.079-101.655 34.537 2.886 19.828 55.063 1.769 80.058 1.908 36.026 0.279 43.427 16.198 25.367 45.009-16.384 26.112-35.607 50.409-52.689 76.195-6.796 10.566-9.542 24.157 1.955 32.908 13.684 10.566 27.229 4.049 35.049-8.937 49.338-82.432 122.135-136.006 214.295-166.959-21.737-29.417-64.233-44.684-40.401-85.132 18.897-32.023 52.736-41.239 86.202-32.116 73.635 20.108 130.607 60.881 150.993 139.962 28.998 112.733-11.776 205.591-82.153 290.537v0zM697.204 113.99c-20.666-8.657-41.751-17.501-62.138 1.489 56.18 69.492 66.793 92.672-12.148 116.736-10.519 3.584-22.109 7.68-32.163 12.335-67.305 31.185-84.992 59.997-116.317 101.702-11.311 15.174-21.923 31.418-36.026 43.567-23.040 19.968-50.409 23.087-76.055 4.934-23.226-16.524-29.743-40.122-23.133-68.515 6.563-27.927 25.926-47.756 44.544-76.614-14.848 0-25.553-0.047-36.166 0-28.625 0.186-52.084-7.959-57.111-39.983-4.748-30.813 12.474-50.735 39.564-58.508 46.22-13.265 93.556-22.528 140.288-33.978 16.012-3.956 34.304-4.049 44.265-21.271-51.665-33.792-163.84-31.511-214.993 4.468-57.996 40.495-80.198 106.822-62.278 182.97 11.636 49.338 33.606 93.556 61.161 135.587 45.801 70.004 103.517 113.431 193.21 100.538 32.023-4.655 65.536-1.908 98.164 0.512 87.412 6.377 126.464-33.745 172.218-113.617 66.607-115.2 43.567-247.063-64.884-292.352v0zM528.058 587.729c76.986 0 139.636 62.511 139.636 139.59s-62.65 139.59-139.636 139.59c-77.079 0-139.636-62.464-139.636-139.59 0-77.033 62.557-139.59 139.636-139.59v0zM528.71 832.512c57.763 0 104.541-46.732 104.541-104.588 0-57.67-46.778-104.541-104.541-104.541s-104.588 46.871-104.588 104.541c0 57.856 46.825 104.588 104.588 104.588v0zM647.959 451.072c-57.065 0-103.238-46.22-103.238-103.238 0-56.972 46.22-103.331 103.238-103.331s103.238 46.359 103.238 103.331c0 57.065-46.22 103.238-103.238 103.238v0zM648.378 275.968c-39.936 0-72.378 32.396-72.378 72.378 0 40.029 32.396 72.425 72.378 72.425s72.471-32.396 72.471-72.425c-0.047-39.983-32.489-72.378-72.471-72.378v0zM823.529 543.697c1.257 3.817 4.282 6.796 8.052 8.145l9.635 3.444-9.076 2.7c-3.305 0.977-5.958 3.351-7.261 6.563l-4.236 11.264-4.515-10.752c-1.21-2.932-3.724-5.353-6.842-6.47l-9.309-3.258 9.914-4.049c3.491-1.35 6.144-4.143 7.401-7.68l3.305-8.937 2.932 9.030zM778.24 603.555l18.432 6.563-13.312 4.003c-12.335 3.677-22.295 12.893-26.903 24.855l-7.121 18.479-10.612-25.507c-2.653-6.563-7.959-11.636-14.569-13.917l-22.249-7.913 24.297-9.681c6.935-2.793 12.428-8.471 14.895-15.5l8.145-22.249 5.539 16.943c3.817 11.217 12.428 20.015 23.459 23.924v0z" />
<glyph unicode="&#xe927;" glyph-name="lock" d="M743.983 29.091h-464.012c-56.925 0-103.191 48.826-103.191 109.009v326.656c0 59.904 46.266 108.963 103.191 108.963h26.81c-2.793 13.498-4.282 27.601-4.282 41.844v41.705c0 115.805 93.743 209.641 209.455 209.641s209.455-93.836 209.455-209.641v-41.705c0-14.243-1.35-28.346-4.282-41.844h26.903c56.925 0 103.191-49.059 103.191-108.963v-326.656c-0.047-60.183-46.313-109.009-103.238-109.009v0zM470.063 291.887v-95.232c0-22.947 18.711-41.937 41.891-41.937 23.087 0 41.798 18.991 41.798 41.937v95.279c25.321 14.522 42.868 41.193 42.868 72.332 0 46.313-37.981 83.642-84.713 83.642-46.639 0-84.62-37.329-84.62-83.642 0-31.185 17.361-57.856 42.775-72.378v0zM637.626 657.268c0 69.539-56.46 125.766-125.719 125.766-69.399-0.047-125.58-56.227-125.58-125.766v-83.503h251.299v83.503z" />
<glyph unicode="&#xe928;" glyph-name="lock-o" d="M510.976 890.182c-127.069 0-222.86-101.143-222.86-235.194v-82.665h-7.121c-66.932 0-121.251-55.668-121.251-124.369v-317.859c0-68.468 54.319-124.323 121.251-124.323h462.010c66.932 0 121.251 55.855 121.251 124.323v317.905c0 68.701-54.319 124.369-121.251 124.369h-3.724c-1.257 0.465-2.281 0.652-3.351 0.745v81.967c-0.186 133.958-96.721 235.101-224.954 235.101v0 0zM510.976 853.318c108.963 0 188.090-83.409 188.090-198.284v-81.501h-373.993v81.455c0 114.874 78.289 198.33 185.903 198.33v0 0zM827.252 448v-317.859c0-48.035-37.609-87.459-84.108-87.459h-462.196c-46.592 0-84.34 39.424-84.34 87.459v317.859c0 48.314 37.748 87.552 84.34 87.552h44.079v1.396h373.807v-1.396h43.985c46.871-0.14 84.433-39.284 84.433-87.552v0 0zM507.997 398.476c-29.603 0-53.481-24.576-53.481-55.017 0-20.387 10.705-38.214 26.764-47.802v-90.019c0-15.313 11.962-27.695 26.81-27.695 14.662 0 26.81 12.381 26.81 27.695v90.019c15.872 9.588 26.717 27.369 26.717 47.802-0.186 30.394-24.111 55.017-53.62 55.017v0 0z" />
<glyph unicode="&#xe929;" glyph-name="mab" d="M372.783 305.711c-3.305-4.375-6.749-9.868-10.287-16.477-3.631-6.656-7.587-14.615-12.009-24.017-9.356-18.199-16.524-33.699-21.457-46.266-4.98-12.707-10.519-22.807-16.524-30.208-6.051-7.401-14.057-12.8-24.017-16.198-9.961-3.305-24.576-4.934-43.846-4.934h-166.4c-14.336 0-25.46 5.26-33.513 15.732-8.006 10.473-12.148 22.109-12.428 35.188-0.186 12.893 3.491 24.623 11.217 35.095 7.727 10.566 20.154 15.779 37.236 15.779 7.68 0 16.663 0.14 26.857 0.419s20.806 0.465 31.837 0.465 22.063 0.093 33.094 0.419c11.031 0.233 21.225 0.419 30.673 0.419 9.961 0 18.758 4.561 26.438 13.731 7.773 8.983 14.662 20.108 20.666 33.001 6.051 13.079 11.59 26.159 16.57 39.331 4.98 13.219 9.635 24.017 14.103 32.256 1.629 3.305 3.398 6.609 5.306 9.961 2.001 3.165 4.003 6.842 6.237 10.659 10.473-2.793 20.992-7.215 31.418-13.265 10.473-6.097 19.596-14.615 27.322-25.647 7.168-11.078 12.288-22.249 15.313-33.559s5.12-21.876 6.191-31.884v0 0zM385.21 256.047c13.219-17.082 24.576-32.256 33.932-45.521 3.817-5.492 7.401-10.985 10.705-16.477 3.305-5.446 5.818-10.38 7.494-14.476 1.629-4.143 2.327-7.494 2.048-9.914-0.233-2.56-2.048-3.817-5.353-3.817h-24.809c-9.961 0-19.596 0.326-28.998 0.884-10.985 0-22.342 0.326-33.932 0.884l38.912 88.436zM813.009 733.51c24.855 0 47.942-4.701 69.492-14.057 21.457-9.402 40.401-22.249 56.646-38.493 16.291-16.291 29.091-35.281 38.493-57.111s14.057-45.103 14.057-69.911c0-24.855-4.655-48.128-14.057-69.958-9.309-21.783-22.156-40.774-38.493-57.065-16.291-16.291-35.188-29.091-56.646-38.54-21.551-9.356-44.637-14.010-69.492-14.010s-48.128 4.655-69.958 14.010c-21.737 9.356-40.82 22.202-57.065 38.54-16.244 16.291-29.137 35.281-38.493 57.158-9.356 21.83-14.010 45.056-14.010 69.958 0 24.855 4.655 48.081 14.010 69.911 9.356 21.737 22.202 40.82 38.493 57.111 16.244 16.244 35.328 29.044 57.065 38.447 21.83 9.356 45.103 14.010 69.958 14.010v0 0zM592.058 493.615c6.609-11.59 16.756-25.879 30.627-42.682 13.824-16.756 28.951-35.095 45.521-55.063 16.57-19.828 33.699-40.634 51.293-62.371 17.687-21.83 33.932-43.008 48.826-63.302 14.848-20.992 20.247-39.889 16.151-56.692-4.096-16.849-13.265-29.836-27.276-38.912-14.103-9.076-30.906-13.079-50.502-11.962-19.549 1.117-37.376 9.030-53.341 23.971-16.058 14.895-28.951 29.556-38.865 43.799-10.007 14.336-18.525 27.462-25.693 39.377-7.121 11.729-13.405 22.202-18.618 30.999-5.306 8.751-11.497 15.453-18.618 19.875-6.609 4.422-10.38 8.332-11.217 11.497-0.838 3.351-2.467 5.818-4.98 7.54-2.42 1.583-7.727 2.467-15.686 2.467-8.052 0-23.087-1.164-45.103-3.398-6.656-1.024-12.707-1.722-18.246-1.955-5.539-0.372-10.473-0.838-14.895-1.303l-73.449 156.393c14.196 11.078 29.51 19.875 45.708 26.484 16.291 6.656 33.001 9.914 50.129 9.914 19.27 0 35.607 0.419 48.78 1.257s24.576 0.419 33.932-1.257c9.356-1.676 17.501-4.98 24.436-9.914s13.917-13.219 21.085-24.762v0 0z" />
<glyph unicode="&#xe92a;" glyph-name="map-marker" d="M826.135 552.634c0-228.445-265.961-496.873-277.085-508.323-10.24-10.1-23.738-15.22-37.004-15.22-13.452 0-26.857 5.12-37.097 15.174-11.217 11.45-277.085 279.924-277.085 508.369 0 173.242 140.847 314.275 314.182 314.275 173.196 0 314.089-141.033 314.089-314.275v0 0zM512.047 395.636c86.575 0 156.905 70.33 156.905 156.998s-70.33 156.998-156.905 156.998c-86.761 0-157.231-70.377-157.231-156.998s70.47-156.998 157.231-156.998v0 0z" />
<glyph unicode="&#xe92b;" glyph-name="map-marker-o" d="M512.047 29.091c-28.113 0-324.841 333.638-324.841 512.977s145.455 324.841 324.841 324.841c179.433 0 324.748-145.455 324.748-324.841 0-179.479-297.984-512.977-324.748-512.977v0 0zM512.047 824.972c-156.253 0-282.857-126.697-282.857-282.857 0-156.253 274.944-471.040 282.857-471.040 3.677 0 282.81 314.787 282.81 471.040 0 156.16-126.511 282.857-282.81 282.857v0 0zM512.047 426.868c-63.674 0-115.2 51.619-115.2 115.247s51.526 115.293 115.2 115.293c63.628 0 115.293-51.665 115.293-115.293s-51.665-115.247-115.293-115.247v0 0zM512.047 615.424c-40.588 0-73.263-32.861-73.263-73.356 0-40.588 32.675-73.263 73.263-73.263s73.356 32.675 73.356 73.263c0 40.541-32.768 73.356-73.356 73.356v0 0z" />
<glyph unicode="&#xe92c;" glyph-name="money" d="M930.909 547.049c-53.993 0-97.839-43.892-97.839-97.978 0-53.993 43.799-97.792 97.839-97.792v-149.551c0-18.804-15.081-33.839-33.792-33.839h-770.095c-18.711 0-33.932 15.034-33.932 33.839v149.551c54.039 0 97.792 43.753 97.792 97.792 0 54.132-43.753 97.978-97.792 97.978v147.27c0 18.525 15.22 33.792 33.932 33.792h770.095c18.711 0 33.792-15.267 33.792-33.792v-147.27zM570.694 612.166l-45.661-106.031c-3.863-8.983-6.656-15.872-8.425-20.48h-0.931l-55.343 126.511h-67.491l75.683-141.265h-57.391v-40.401h70.051v-34.816h-70.051v-40.122h70.051v-58.368h64.047v58.368h67.77v40.122h-67.77v34.816h67.77v40.401h-56.134l77.917 141.265h-64.093z" />
<glyph unicode="&#xe92d;" glyph-name="order" d="M847.36 798.58c0 42.031-34.164 76.195-76.288 76.195h-518.191c-42.031 0-76.241-34.164-76.241-76.195v-701.207c0-41.984 34.164-76.195 76.241-76.195h373.434c4.561 0 8.657 2.095 11.357 5.26l0.093-0.047 205.731 236.358c2.374 2.653 3.817 6.097 3.817 9.961v525.871h0.047zM611.049 51.665h-358.167c-25.228 0-45.754 20.527-45.754 45.708v701.207c0 25.228 20.527 45.708 45.754 45.708h518.191c25.274 0 45.708-20.527 45.708-45.708v-510.65h-83.828c-67.258 0-121.903-54.691-121.903-121.903v-114.362zM798.627 257.489l-157.091-180.317v88.855c0 50.409 41.007 91.462 91.462 91.462h65.629zM306.223 653.777h411.508c8.471 0 15.267 6.796 15.267 15.267 0 8.425-6.796 15.267-15.267 15.267h-411.508c-8.425 0-15.22-6.842-15.22-15.267-0.047-8.471 6.796-15.267 15.22-15.267v0zM306.223 508.975h411.508c8.471 0 15.267 6.796 15.267 15.267 0 8.425-6.796 15.22-15.267 15.22h-411.508c-8.425 0-15.22-6.796-15.22-15.22-0.047-8.425 6.796-15.267 15.22-15.267v0zM732.998 379.392c0 8.471-6.796 15.267-15.267 15.267h-411.508c-8.425 0-15.22-6.796-15.22-15.267 0-8.425 6.796-15.22 15.22-15.22h411.508c8.425 0 15.267 6.796 15.267 15.22v0zM512 242.223h-205.777c-8.425 0-15.22-6.796-15.22-15.22s6.796-15.22 15.22-15.22h205.777c8.471 0 15.267 6.796 15.267 15.22s-6.842 15.22-15.267 15.22v0z" />
<glyph unicode="&#xe92e;" glyph-name="order_active" d="M843.59 211.177h-94.72c-39.284 0-71.075-31.837-71.075-71.028v-118.458l165.795 189.487zM772.515 874.356h-521.030c-39.284 0-71.075-31.837-71.075-71.028v-710.563c0-39.284 31.837-71.075 71.075-71.075h378.927v118.458c0 65.257 53.201 118.458 118.458 118.458h94.72v544.675c0 39.238-31.837 71.075-71.075 71.075v0zM440.925 175.663h-142.103c-13.079 0-23.692 10.566-23.692 23.645s10.612 23.738 23.692 23.738h142.103c13.079 0 23.738-10.659 23.738-23.738s-10.659-23.645-23.738-23.645v0zM725.178 341.457h-426.356c-13.079 0-23.692 10.566-23.692 23.645s10.612 23.692 23.692 23.692h426.31c13.079 0 23.692-10.612 23.692-23.692s-10.566-23.645-23.645-23.645v0zM725.178 507.206h-426.356c-13.079 0-23.692 10.612-23.692 23.692s10.612 23.692 23.692 23.692h426.31c13.079 0 23.692-10.612 23.692-23.692s-10.566-23.692-23.645-23.692v0zM725.178 673.001h-426.356c-13.079 0-23.692 10.612-23.692 23.692s10.612 23.738 23.692 23.738h426.31c13.079 0 23.692-10.612 23.692-23.692s-10.566-23.738-23.645-23.738v0z" />
<glyph unicode="&#xe92f;" glyph-name="phone" d="M729.833 29.091v0l-4.422 0.14c-100.492 5.073-236.311 99.747-363.38 253.207l-46.778 56.599c-127.023 153.507-193.536 303.383-177.99 400.943 10.938 68.887 113.385 126.929 171.753 126.929 28.858 0 39.331-14.429 42.915-22.947 33.094-58.88 74.1-161.094 74.287-197.958v-2.374l-0.931-2.56c-7.308-19.363-23.645-28.579-38.121-36.724-18.944-10.659-29.743-17.687-31.046-38.028-0.372-6.284 4.887-34.118 88.623-137.449l35.84-43.101c84.015-99.188 110.406-109.847 116.643-110.825 20.154-2.793 29.789 6.144 44.451 22.063 10.892 12.148 23.459 26.065 44.311 28.951l2.653 0.559 2.7-0.698c36.445-7.587 130.001-67.91 183.296-112.78 7.587-5.213 21.085-20.294 10.426-53.667-16.71-52.457-89.041-130.281-155.229-130.281v0 0z" />
<glyph unicode="&#xe930;" glyph-name="plus-circle-o" d="M662.993 481.373h-117.201v117.434c0 18.479-14.988 33.559-33.559 33.559-18.432 0-33.513-14.988-33.513-33.559v-117.388h-117.201c-18.479 0-33.513-14.988-33.513-33.606 0-18.432 14.941-33.559 33.513-33.559h117.248v-117.481c0-18.339 15.034-33.559 33.513-33.559 18.525 0 33.559 15.081 33.559 33.559v117.434h117.201c18.432 0 33.745 14.941 33.745 33.559-0.233 18.665-15.313 33.606-33.792 33.606v0 0zM512 866.909c-230.912 0-418.909-187.951-418.909-418.909s187.997-418.909 418.909-418.909c230.912 0 418.909 187.951 418.909 418.909s-187.904 418.909-418.909 418.909v0 0zM512 81.501c-202.147 0-366.545 164.445-366.545 366.499 0 202.147 164.399 366.545 366.545 366.545 202.1 0 366.545-164.399 366.545-366.545 0-202.054-164.445-366.499-366.545-366.499v0 0z" />
<glyph unicode="&#xe931;" glyph-name="shoes" d="M896.186 686.639c13.917 3.491 25.181 0.698 33.932-8.378 8.704-9.030 15.825-19.828 21.364-32.303 6.284-12.521 14.103-33.327 23.459-62.65 9.402-29.137 15.5-65.303 18.292-108.404 2.839-42.356 1.21-75.171-4.701-98.071-5.911-22.947-10.659-34.444-14.103-34.444-2.048 0-6.935 0.419-14.569 1.071s-17.222 1.396-28.625 2.095c-11.543 0.745-24.716 1.024-39.703 1.024s-30.767-0.326-47.476-1.024c-6.237 0-16.477 0.186-30.767 0.512-14.289 0.419-30.767-0.186-49.478-1.489-18.758-1.443-39.145-4.934-61.068-10.426-21.923-5.632-43.939-14.662-66.188-27.183-25.74-14.615-47.802-27.834-66.281-39.703-18.432-11.776-39.238-22.249-62.604-31.232-23.273-9.076-51.572-16.012-84.945-20.806-33.373-4.887-77.871-7.354-133.539-7.354-31.977 0-61.905 0.884-89.647 2.653-27.881 1.722-52.177 3.956-73.030 6.749-24.297 2.839-47.244 6.284-68.841 10.473-7.633 9.681-13.871 20.48-18.758 32.303-4.189 9.775-7.121 21.364-8.844 34.956-1.722 13.498 0.186 28.020 5.725 43.287 4.887 13.219 12.148 24.204 21.923 32.815 9.775 8.704 20.899 15.313 33.373 19.875 12.521 4.468 26.065 7.075 40.727 7.866 14.569 0.652 29.184 0.326 43.799-1.117 29.882-3.398 58.508-1.908 86.016 4.701 27.508 6.703 53.201 15.639 77.219 27.136 23.971 11.497 46.033 24.716 66.234 39.703 20.154 14.848 38.214 29.696 54.225 44.311 16.012 14.569 29.044 28.672 39.098 42.17 10.054 13.638 18.246 26.112 24.483 37.609s11.124 22.063 14.569 31.791c3.491 9.728 6.284 17.78 8.378 24.017 5.585 15.313 14.057 25.74 25.6 31.325 11.45 5.539 24.157 6.284 38.074 2.048 22.202-6.935 47.104-11.45 74.519-13.498 27.462-2.141 58.973-2.467 94.394-1.117 18.711 0.745 34.537 1.955 47.476 3.724 12.8 1.722 23.645 3.491 32.303 5.167 8.704 1.769 16.012 3.491 21.876 5.213 5.911 1.583 11.264 3.165 16.105 4.608v0zM581.306 612.631c-7.633 0-14.476-3.025-20.387-8.937s-8.89-13.033-8.89-21.318c0-7.727 2.979-14.522 8.89-20.387 5.911-5.911 12.753-8.89 20.387-8.89 8.332 0 15.453 2.979 21.318 8.89 5.958 5.865 8.844 12.614 8.844 20.387 0 8.285-2.932 15.407-8.844 21.318-5.865 5.911-13.033 8.937-21.318 8.937v0zM515.537 530.199c-8.332 0-15.453-2.979-21.364-8.844-5.911-5.911-8.844-13.033-8.844-21.457 0-8.89 2.932-16.477 8.844-22.342 5.911-5.911 13.033-8.89 21.364-8.89 9.030 0 16.524 2.979 22.388 8.89 5.911 5.865 8.844 13.452 8.844 22.342 0 8.425-2.932 15.546-8.844 21.457-5.865 5.818-13.312 8.844-22.388 8.844v0zM956.695 304.826h-150.249c-14.569 0-27.276-0.093-37.981-0.465-10.752-0.419-17.594-0.559-20.34-0.559-7.68 0-14.429-2.932-20.387-8.844-5.911-5.911-8.844-16.524-8.844-31.837 0-12.521 3.491-21.551 10.473-27.089 6.889-5.585 14.243-8.378 21.876-8.378h203.357c7.68 0 14.755 2.42 21.411 7.308 6.609 4.841 9.914 14.941 9.914 30.161 0 13.964-2.839 23.878-8.378 29.789s-12.474 9.263-20.852 9.914v0z" />
<glyph unicode="&#xe932;" glyph-name="star" d="M950.924 557.103c-7.494 22.109-27.369 38.214-50.967 41.705l-229.981 34.257-100.073 207.686c-10.519 21.783-33.001 35.654-57.903 35.654-24.762 0-47.197-13.871-57.716-35.7l-100.026-207.686-230.167-34.257c-23.599-3.444-43.334-19.596-50.967-41.658-7.633-22.156-1.722-46.639 14.988-63.255l168.541-168.401-39.145-233.658c-3.863-23.459 6.33-46.918 26.205-60.742 11.078-7.633 24.017-11.497 36.864-11.497 10.519 0 21.318 2.746 30.813 7.773l200.611 104.681 200.89-104.634c9.495-5.027 20.154-7.773 30.767-7.773 12.66 0 25.647 3.863 36.864 11.497 19.875 13.824 29.929 37.283 26.205 60.742l-39.424 233.658 168.681 168.401c16.663 16.57 22.435 41.053 14.941 63.209v0z" />
<glyph unicode="&#xe933;" glyph-name="star-o" d="M511.767 827.718c9.588 0 17.873-4.98 21.69-12.753l100.166-203.078c5.772-11.683 17.036-19.875 30.394-21.83l229.935-33.373c8.751-1.35 16.058-7.168 18.851-14.708 2.56-7.401 0.559-15.5-5.073-21.225l-168.727-164.678c-9.263-8.983-13.498-21.83-11.264-34.49l38.865-228.305c1.722-8.052-1.955-15.779-8.983-20.527-4.236-2.979-8.751-4.236-14.383-4.236-3.677 0-7.913 0.838-11.543 2.653l-200.797 105.798c-5.632 3.072-12.428 4.794-19.177 4.794-6.47 0-12.986-1.676-19.037-4.794l-200.285-105.658c-3.817-2.001-7.866-2.839-12.102-2.839-4.934 0-10.007 1.536-13.777 3.91-7.168 5.073-10.705 12.8-9.309 20.852l39.005 228.305c1.955 12.66-2.234 25.507-11.59 34.49l-168.076 164.864c-6.051 5.585-8.192 13.638-5.492 20.852 2.653 7.727 10.147 13.591 18.572 14.895l230.307 33.373c13.219 2.001 24.809 10.193 30.441 21.876l100.119 203.078c3.537 7.773 12.102 12.753 21.271 12.753zM511.767 866.956c-24.529 0-47.197-13.545-57.484-34.863l-100.119-203.078-229.888-33.466c-23.785-3.398-43.52-19.316-51.247-40.867-7.494-21.69-1.862-45.568 14.941-61.812l168.588-164.631-39.191-228.352c-3.817-23.273 6.33-46.359 26.205-59.857 10.845-7.168 23.924-10.985 36.771-10.985 10.705 0 21.411 2.56 30.999 7.587l200.425 105.658 201.076-105.658c9.263-5.027 20.015-7.587 30.673-7.587 12.94 0 25.647 3.817 36.631 10.985 20.294 13.498 30.115 36.585 26.438 59.857l-39.145 228.305 168.727 164.631c16.617 16.431 22.295 40.122 14.615 61.812-7.587 21.551-26.996 37.469-50.967 40.867l-229.935 33.466-99.98 203.078c-10.38 21.364-33.187 34.909-58.135 34.909v0 0z" />
<glyph unicode="&#xe934;" glyph-name="telphone" d="M117.248 438.319c-1.303 53.201 7.82 105.193 27.229 154.438 18.711 47.29 46.22 90.391 81.548 127.441 35.281 37.143 76.847 66.56 123.345 87.645 48.128 21.876 99.561 33.559 152.902 34.956 53.341 1.071 105.239-7.959 154.391-27.276 47.569-18.711 90.484-46.080 127.535-81.548 37.236-35.375 66.7-76.847 87.785-123.392 21.737-48.268 33.466-99.607 34.723-152.948 1.396-53.201-7.773-105.193-27.183-154.438-18.665-47.29-46.080-90.298-81.548-127.441-35.235-37.143-76.8-66.607-123.392-87.645-48.128-21.876-99.561-33.606-152.855-35.002-53.341-1.024-105.146 8.006-154.345 27.322-47.523 18.665-90.438 46.080-127.581 81.548-37.19 35.375-66.653 76.8-87.692 123.392-21.876 48.081-33.513 99.607-34.863 152.948zM93.231 437.667c5.725-231.331 197.865-414.068 429.103-408.343 231.377 5.725 414.161 197.679 408.436 429.009s-197.772 414.068-429.056 408.343c-231.331-5.679-414.208-197.679-408.483-429.009v0 0zM568.32 401.734c18.525 19.409 34.676 46.639 34.676 46.639s24.157 34.164 8.471 58.508c-33.885 52.317-45.103 50.641-31.092 77.126 48.64 92.16 82.479 89.228 90.764 87.040 32.908-8.052 60.928-66.932 46.313-132.143-14.569-65.583-47.523-131.77-98.304-185.623-51.107-53.388-115.479-89.46-180.41-107.287-64.419-17.734-124.556 7.261-134.423 39.703-2.56 8.285-7.075 41.937 82.385 95.046 25.786 15.267 24.809 4.049 78.615-27.089 25.181-14.662 58.321 11.031 58.321 11.031s26.112 17.641 44.684 37.050v0 0z" />
<glyph unicode="&#xe935;" glyph-name="thumbs-up" d="M937.891 525.033c-20.108 32.070-53.76 50.269-88.995 51.526-1.815 0.279-3.631 0.559-5.446 0.559l-205.777 0.14c14.057 39.843 21.597 82.711 21.597 127.302 0 28.905-3.212 57.204-9.216 84.294l-0.465-0.14c-11.078 47.616-53.434 82.991-104.401 82.991-59.206 0-107.101-47.849-107.101-107.101 0-3.212 0.279-6.516 0.559-9.681-3.258-113.711-92.346-205.917-204.94-214.016v-0.791l-122.368-0.14c-1.257 0.14-2.932 0.14-4.515 0.14-20.201 0-36.771-16.431-36.771-36.817l-0.233-442.135c0-20.34 16.57-36.911 36.771-36.911 2.095 0 4.049 0.279 5.865 0.605h136.006c1.862-0.326 3.677-0.605 5.492-0.605 1.862 0 3.677 0.279 5.492 0.605l511.441-0.605c19.968 0 40.122 5.492 58.415 16.849 16.943 11.078 30.161 26.112 38.586 43.101 2.374 3.491 4.189 7.121 5.306 11.357l79.593 351.465c1.117 4.236 1.396 8.285 1.117 12.381 1.536 22.435-3.351 45.242-16.012 65.629v0zM166.633 72.285h-49.804v408.855h49.804v-408.855z" />
<glyph unicode="&#xe936;" glyph-name="trash" d="M892.742 671.977h-89.647v-506.089c0-85.178-35.561-121.111-134.516-121.111h-313.437c-98.676 0-134.33 35.887-134.33 121.111v506.089h-89.553c-50.921 0-50.921 44.684 0 44.684h179.247l-0.186 76.66c0 31.93 30.255 57.856 67.351 57.856h268.614c37.050 0 67.072-25.972 67.072-57.856v-76.614h179.34c50.967-0.047 50.967-44.73 0.047-44.73v0 0zM668.858 806.353h-313.716v-89.693h313.716v89.693zM758.272 671.977h-492.637v-506.089c0-62.929 23.412-76.288 89.507-76.288h313.716c66.095 0 89.414 17.175 89.414 76.288v506.089zM624.035 179.293v403.084h44.823v-403.084h-44.823zM489.658 179.293v403.084h44.684v-403.084h-44.684zM355.142 179.293v403.084h44.823v-403.084h-44.823z" />
<glyph unicode="&#xe937;" glyph-name="user" d="M870.959 208.244l-190.185 74.1c0 0-36.259 14.103-50.362 28.020-8.983 8.797-8.378 29.929-0.372 56.739s105.565 135.82 105.565 234.868c0 152.948-100.538 276.992-224.628 276.992-124.044 0-224.582-124.044-224.582-276.992 0-94.86 86.9-207.965 97.606-228.538 10.752-20.527 8.145-51.805-0.326-61.347-12.707-14.289-59.206-28.532-59.206-28.532l-171.473-76.474c-40.029-14.383-71.447-52.084-71.447-94.813v-20.201c0-46.545 37.795-74.985 84.247-74.985h692.457c46.452 0 84.201 28.439 84.201 74.985v20.201c0 42.729-31.372 81.641-71.494 95.977v0 0 0zM858.252 57.344h-692.457c-15.5 0-42.822 27.276-41.984 54.924 0.838 27.741 23.226 42.356 41.193 48.826l170.31 75.264c0 0 57.716 16.105 78.755 44.079 19.642 26.205 19.549 51.2 15.5 74.705-5.492 32.256-5.027 40.355-24.809 64.326-19.642 23.831-78.662 107.985-78.662 182.272 0 119.715 88.017 236.684 185.111 236.684 97.001 0 186.182-116.969 186.182-236.684 0-77.545-63.907-150.156-83.735-183.808-21.644-36.817-25.088-52.689-26.717-67.956-1.629-15.174-2.653-50.455 9.728-69.539 12.474-19.177 65.164-38.447 65.164-38.447l190.278-74.193c17.92-6.47 49.617-32.628 50.176-56.646 0.605-24.064-28.579-53.807-44.032-53.807v0 0 0z" />
<glyph unicode="&#xe938;" glyph-name="user_active" d="M872.867 207.174l-191.162 74.473c0 0-36.445 14.010-50.595 28.020-9.030 8.89-8.518 30.068-0.419 57.111 8.052 26.996 106.077 136.518 106.077 236.032 0 153.74-101.19 278.295-225.745 278.295-124.695 0-225.652-124.602-225.652-278.295 0-95.372 87.273-209.036 98.118-229.655 10.705-20.527 8.239-52.177-0.279-61.719-12.847-14.289-59.439-28.719-59.439-28.719l-172.311-76.8c-40.495-14.383-72.052-52.364-72.052-95.185v-20.294c0-46.732 37.981-75.357 84.573-75.357h695.808c46.639 0 84.62 28.625 84.62 75.357v20.294c0.186 42.682-31.232 81.78-71.54 96.442v0 0z" />
<glyph unicode="&#xe939;" glyph-name="user-o" d="M512 424.774c-130.001 0-235.846 104.355-235.846 232.681s105.844 232.727 235.846 232.727c129.955 0 235.892-104.448 235.892-232.727s-105.891-232.681-235.892-232.681v0zM512 857.228c-111.895 0-202.938-89.647-202.938-199.773s91.089-199.727 202.938-199.727c111.849 0 202.892 89.553 202.892 199.727s-91.043 199.773-202.892 199.773v0zM593.408 5.818h-162.863c-163.7 0-292.864 0-292.864 96.442v16.151c0 159.232 131.398 288.815 292.864 288.815h162.863c161.559 0 292.864-129.583 292.864-288.815v-16.151c0-96.442-135.773-96.442-292.864-96.442v0zM430.639 374.179c-143.313 0-259.91-114.828-259.91-255.767v-16.151c0-60.463 98.769-63.581 259.91-63.581h162.769c133.725 0 260.049 0 260.049 63.581v16.151c0 140.94-116.689 255.767-260.049 255.767h-162.769z" />
<glyph unicode="&#xe93a;" glyph-name="wallet" d="M480.628 764.23c25.926 13.591 51.386 27.136 76.614 40.634 25.274 13.591 44.87 23.971 59.066 31.279 21.551 11.776 40.867 17.129 57.67 16.291 16.896-1.024 31.185-3.956 42.822-8.797 13.638-6.842 25.274-15.732 35.049-26.81l53.481-102.4h-418.816c33.233 17.129 64.605 33.839 94.115 49.804v0 0zM930.909 462.522h-209.455c-23.273 0-43.148-8.006-59.532-24.017-16.291-16.012-24.343-35.607-24.343-59.159 0.559-15.872 4.003-30.068 10.054-42.356 4.887-10.473 12.986-20.108 24.623-28.532 11.217-8.751 27.648-12.986 49.245-12.986h209.408v-167.889c0-11.776-1.955-22.621-5.958-32.675-3.956-10.193-9.775-19.037-17.175-26.717-7.121-7.82-15.919-13.777-25.693-18.013-9.914-4.375-20.62-6.516-32.256-6.656h-670.068c-11.59 0-22.761 2.281-33.047 6.656-10.612 4.236-19.735 10.193-27.881 18.013-8.006 7.68-14.243 16.524-18.944 26.717-4.561 10.007-6.796 20.852-6.796 32.628v460.428c0 23.319 8.192 43.194 24.343 59.532 16.477 16.291 36.259 24.483 59.671 24.483h669.789c23.412 0 43.287-8.192 59.532-24.483 16.431-16.291 24.483-36.166 24.483-59.532v-125.44zM763.020 379.345c0-11.497-4.096-21.737-12.055-29.929-8.099-8.332-17.873-12.474-29.51-12.474s-21.597 4.143-29.51 12.474c-7.959 8.192-12.055 18.432-12.055 29.929 0 11.776 4.096 21.551 12.055 29.649 7.913 7.959 17.873 12.055 29.51 12.055s21.411-4.096 29.51-12.055c8.099-8.099 12.055-17.873 12.055-29.649v0 0z" />
<glyph unicode="&#xe93b;" glyph-name="wxpay" d="M873.519 866.909h-723.037c-31.651 0-57.344-25.693-57.344-57.391v-723.037c0-31.604 25.693-57.391 57.344-57.391h722.991c31.744 0 57.344 25.786 57.344 57.344v723.084c0.047 31.697-25.6 57.391-57.297 57.391v0zM512 180.55c-42.031 0-82.199 7.215-119.11 20.108-23.412-15.639-62.743-41.193-78.243-48.314-22.714-10.566-16.198 12.102-16.198 12.102l13.498 77.359c-74.473 51.805-122.275 131.863-122.275 221.789 0 156.3 144.337 282.903 322.281 282.903 109.103 0 205.359-47.569 263.82-120.367l-316.137-146.385c0 0-25.786-9.775-48.314 4.049-22.621 13.731-52.364 36.399-52.364 36.399s-34.769 29.51-16.151-24.39l48.407-113.059c0 0 5.632-33.932 44.265-12.241 30.115 16.849 264.471 158.115 365.149 218.903 21.504-37.841 33.699-80.663 33.699-125.905 0-156.253-144.291-282.95-322.327-282.95v0z" />
<glyph unicode="&#xe93c;" glyph-name="jfh-yd" d="M809.891 866.909h-595.782c-65.164 0-121.018-55.855-121.018-121.018v-600.436c0-60.509 55.855-116.364 121.018-116.364h600.436c65.164 0 121.018 55.855 121.018 121.018v595.782c-4.655 65.164-60.509 121.018-125.673 121.018v0zM167.564 150.109v595.782c0 23.273 18.618 46.545 46.545 46.545h139.636v-688.873h-139.636c-27.927 0-46.545 18.618-46.545 46.545v0zM856.436 150.109c0-23.273-18.618-46.545-46.545-46.545h-400.291v688.873h400.291c23.273 0 46.545-18.618 46.545-46.545v-595.782zM293.236 438.691c13.964 13.964 27.927 41.891 18.618 65.164-13.964 23.273-41.891 37.236-69.818 27.927s-46.545-46.545-32.582-74.473c9.309-23.273 27.927-37.236 51.2-37.236l4.655-13.964c4.655-4.655 13.964-9.309 23.273-4.655s13.964 13.964 9.309 23.273l-4.655 13.964zM800.582 745.891h-37.236v-37.236h-37.236v-37.236h37.236v-37.236h37.236v37.236h37.236v37.236h-37.236v37.236zM637.673 596.945h37.236v-37.236h-37.236v37.236zM702.836 596.945h107.055v-37.236h-107.055v37.236zM637.673 531.782h172.218v-37.236h-172.218v37.236z" />
<glyph unicode="&#xe93d;" glyph-name="minus" d="M437.527 387.491h493.382v121.018h-837.818v-121.018h344.436z" />
<glyph unicode="&#xe93e;" glyph-name="plus" d="M93.091 508.509h837.818v-121.018h-837.818v121.018zM451.491 866.909h121.018v-837.818h-121.018v837.818z" />
<glyph unicode="&#xe93f;" glyph-name="jfh-cyyjqx" d="M204.8 392.145c13.964 0 27.927 13.964 27.927 27.927s-13.964 27.927-27.927 27.927c-13.964 0-27.927-13.964-27.927-27.927 0-18.618 9.309-27.927 27.927-27.927v0zM297.891 392.145c13.964 0 27.927 13.964 27.927 27.927s-13.964 27.927-27.927 27.927c-13.964 0-27.927-13.964-27.927-27.927-4.655-18.618 9.309-27.927 27.927-27.927v0zM176.873 578.327h69.818c13.964 0 23.273 9.309 23.273 23.273l27.927 60.509h41.891c4.655 0 13.964 4.655 13.964 13.964v4.655c0 4.655-4.655 13.964-13.964 13.964h-195.491c-13.964 0-23.273-9.309-23.273-23.273l37.236-69.818c-9.309-13.964 4.655-23.273 18.618-23.273v0zM176.873 657.455h69.818c4.655 0 9.309-4.655 9.309-13.964l-9.309-23.273c0-4.655-4.655-13.964-13.964-13.964h-46.545c-4.655 0-9.309 4.655-9.309 13.964l-13.964 23.273c0 9.309 4.655 13.964 13.964 13.964v0zM637.673 275.782h13.964c4.655 0 13.964 4.655 13.964 13.964v46.545c0 4.655-4.655 9.309-13.964 9.309h-13.964c-4.655 0-13.964-4.655-13.964-9.309v-46.545c4.655-9.309 9.309-13.964 13.964-13.964v0zM884.364 820.364h-279.273c-27.927 0-46.545-18.618-46.545-46.545v-651.636c0-27.927 18.618-46.545 46.545-46.545h279.273c27.927 0 46.545 18.618 46.545 46.545v651.636c0 27.927-18.618 46.545-46.545 46.545v0zM893.673 136.145c0-13.964-9.309-23.273-23.273-23.273h-256c-13.964 0-23.273 9.309-23.273 23.273v256h302.545v-256zM893.673 424.727h-302.545v339.782c0 13.964 9.309 23.273 23.273 23.273h256c13.964 0 23.273-9.309 23.273-23.273v-339.782zM404.945 345.6h-209.455c-13.964 0-23.273-9.309-23.273-23.273v-139.636c0-13.964 9.309-23.273 23.273-23.273h209.455c13.964 0 23.273 9.309 23.273 23.273v139.636c0 9.309-9.309 23.273-23.273 23.273v0zM418.909 201.309c0-18.618-13.964-32.582-27.927-32.582h-176.873c-13.964 0-27.927 13.964-27.927 32.582v102.4c0 18.618 13.964 27.927 27.927 27.927h172.218c13.964 0 27.927-13.964 27.927-27.927l4.655-102.4zM651.636 541.091h-13.964c-4.655 0-13.964-4.655-13.964-9.309v-46.545c0-4.655 4.655-13.964 13.964-13.964h13.964c4.655 0 13.964 4.655 13.964 13.964v46.545c0 4.655-9.309 9.309-13.964 9.309v0zM465.455 541.091h-325.818c-27.927 0-46.545-18.618-46.545-46.545v-372.364c0-27.927 18.618-46.545 46.545-46.545h325.818c27.927 0 46.545 18.618 46.545 46.545v372.364c0 27.927-18.618 46.545-46.545 46.545v0zM474.764 136.145c0-13.964-9.309-23.273-23.273-23.273h-302.545c-13.964 0-23.273 9.309-23.273 23.273v349.091c0 13.964 9.309 23.273 23.273 23.273h302.545c13.964 0 23.273-9.309 23.273-23.273v-349.091zM400.291 448c-13.964 0-27.927-13.964-27.927-27.927s13.964-27.927 27.927-27.927c13.964 0 27.927 13.964 27.927 27.927s-9.309 27.927-27.927 27.927v0z" />
<glyph unicode="&#xe940;" glyph-name="angle-left" d="M754.036 801.745l-65.164 65.164-418.909-418.909 418.909-418.909 69.818 69.818-353.745 349.091 349.091 353.745z" />
</font>
</defs>
</svg>
